<?xml version="1.0" standalone="no"?>
<!DOCTYPE svg PUBLIC "-//W3C//DTD SVG 1.1//EN" "http://www.w3.org/Graphics/SVG/1.1/DTD/svg11.dtd" >
<svg xmlns="http://www.w3.org/2000/svg">
<metadata></metadata>
<defs>
<font id="andadaregular" horiz-adv-x="1146" >
<font-face units-per-em="2048" ascent="1638" descent="-410" />
<missing-glyph horiz-adv-x="458" />
<glyph unicode="&#xa8;I" horiz-adv-x="743" d="M82 1688q0 57 28.5 89.5t82.5 32.5q110 0 110 -122q0 -57 -28 -89t-82 -32t-82.5 32t-28.5 89zM98 92l162 33q19 128 19 156v882q0 28 -19 156l-158 24l11 111q196 -10 237 -10q73 0 143 2.5t104 5.5l34 2l8 -121l-160 -14q-14 -101 -14 -217v-760q0 -116 14 -217 l185 -14l-15 -121q-135 10 -299 10l-241 -10zM442 1688q0 57 28.5 89.5t82.5 32.5q111 0 111 -122q0 -57 -28.5 -89t-82.5 -32t-82.5 32t-28.5 89z" />
<glyph unicode="&#xa8;O" horiz-adv-x="1515" d="M86 721q0 226 74.5 394t227.5 264t370 96t370 -96t227.5 -264t74.5 -394q0 -225 -74.5 -392.5t-227.5 -263.5t-370 -96t-370 96t-227.5 263.5t-74.5 392.5zM305 721q0 -135 28.5 -250.5t83 -204t142.5 -138.5t199 -50t198.5 50t142.5 138.5t83 203.5t28 251t-28 252 t-83 204.5t-142.5 138.5t-198.5 50q-148 0 -252 -88t-152.5 -231t-48.5 -326zM406 1688q0 57 28 89.5t82 32.5q111 0 111 -122q0 -57 -28.5 -89t-82.5 -32t-82 32t-28 89zM889 1688q0 57 28 89.5t82 32.5q111 0 111 -122q0 -57 -28.5 -89t-82.5 -32t-82 32t-28 89z" />
<glyph unicode="&#xb4;Y" horiz-adv-x="1357" d="M12 1333l11 111h223l301 10l8 -100l-162 -41q22 -100 88 -221l207 -387l236 479l57 129l-156 20l11 111h184l293 10l8 -100l-139 -35q-74 -97 -129 -203l-287 -557v-217q0 -116 14 -217l185 -14l-15 -121q-135 10 -299 10l-241 -10l-11 102l162 33q19 128 19 156v245 l-318 613q-19 37 -48 80.5t-48 68.5l-19 25zM455 1634l469 205l61 -149q-270 -66 -309 -78l-180 -76z" />
<glyph unicode="&#xa8;i" horiz-adv-x="616" d="M-16 1337q0 57 28 90t82 33t82.5 -31.5t28.5 -91.5q0 -57 -28.5 -88.5t-82.5 -31.5t-82 31.5t-28 88.5zM74 92l155 33q21 115 21 156v442q0 18 -5 57t-11 69l-5 30l-155 32l10 109q147 -8 188 -8h119l39 -37q-14 -211 -14 -313v-320q0 -45 3.5 -99.5t6.5 -86.5l4 -31 l160 -14l-15 -121q-100 10 -264 10l-227 -10zM344 1337q0 57 28.5 90t82.5 33q110 0 110 -123q0 -57 -28 -88.5t-82 -31.5t-82.5 31.5t-28.5 88.5z" />
<glyph unicode="&#xa8;o" horiz-adv-x="1105" d="M82 504q0 241 121.5 383.5t349.5 142.5q231 0 351 -141t120 -385q0 -240 -121.5 -382t-349.5 -142t-349.5 142t-121.5 382zM217 1337q0 57 28.5 90t82.5 33q110 0 110 -123q0 -57 -28 -88.5t-82 -31.5t-82.5 31.5t-28.5 88.5zM274 504q0 -83 14.5 -153.5t45.5 -129 t87 -92t132 -33.5t132 33.5t86.5 92.5t45 128.5t14.5 153.5t-14.5 154t-45 129t-86.5 92.5t-132 33.5t-132 -33.5t-87 -92.5t-45.5 -129.5t-14.5 -153.5zM700 1337q0 57 28.5 90t82.5 33t82.5 -31.5t28.5 -91.5q0 -57 -28.5 -88.5t-82.5 -31.5t-82.5 31.5t-28.5 88.5z" />
<glyph unicode="&#xb4;y" horiz-adv-x="1103" d="M0 911l10 107q127 -6 168 -6q73 0 143 2.5t104 5.5l34 2l6 -119l-148 -14q25 -107 52 -174l202 -502l179 475q31 87 55 199l-150 24l11 107q137 -6 178 -6q69 0 128 2.5t83 5.5l24 2l6 -119l-108 -16q-78 -160 -107 -234l-421 -1134l-330 22l16 119l82 -2q30 0 137 20 q52 73 78 140l66 182l-293 682q-27 69 -105 205zM360 1239l369 307l96 -123q-216 -122 -247 -145l-150 -123z" />
<glyph unicode="&#xfb01;" horiz-adv-x="1245" d="M74 92l155 33q21 115 21 156v620h-158l-6 86q81 25 164 60v176q0 164 93 259t267 95q26 0 63.5 -5.5t62.5 -10.5l24 -5l-23 -276l-108 6v74q0 25 -27 108h-6q-41 0 -71 -9.5t-49.5 -30t-31.5 -44.5t-18 -63t-8 -74t-2 -88l4 -147h600l39 -37q-15 -211 -15 -313v-320 q0 -45 4 -99.5t8 -86.5l3 -31l160 -14l-15 -121q-100 10 -264 10l-227 -10l-11 102l156 33q21 115 21 156v442q0 18 -5.5 57t-10.5 69l-5 30q-79 22 -143 22h-299v-559q0 -45 3.5 -99.5t6.5 -86.5l4 -31l201 -14l-15 -121q-141 10 -305 10l-227 -10zM821 1341q0 60 32 97 t89 37t89 -35.5t32 -98.5q0 -60 -32 -95.5t-89 -35.5t-89 35.5t-32 95.5z" />
<glyph unicode="&#xfb02;" horiz-adv-x="1261" d="M74 92l155 33q21 115 21 156v620h-158l-6 86q20 7 58.5 18t61.5 20t44 22v176q0 164 93 259t267 95q66 0 173 -14.5t173 -14.5h64l39 -37q-15 -211 -15 -313v-856q0 -45 4 -99.5t8 -86.5l3 -31l160 -14l-15 -121q-120 10 -284 10l-207 -10l-11 102l156 33q21 115 21 156 v979q0 36 -23 174q-37 9 -115 21.5t-131 12.5q-54 0 -91 -15.5t-57 -39t-30.5 -67.5t-13 -83t-2.5 -104l4 -147h282l-10 -111h-276v-559q0 -45 3.5 -99.5t6.5 -86.5l4 -31l201 -14l-15 -121q-141 10 -305 10l-227 -10z" />
<glyph horiz-adv-x="0" />
<glyph horiz-adv-x="682" />
<glyph unicode=" "  horiz-adv-x="458" />
<glyph unicode="&#x09;" horiz-adv-x="458" />
<glyph unicode="&#xa0;" horiz-adv-x="458" />
<glyph unicode="!" horiz-adv-x="468" d="M143 113q0 60 32 95.5t89 35.5t89 -35.5t32 -95.5t-32 -96.5t-89 -36.5t-89 35t-32 98zM162 1460l184 15l39 -37q-51 -486 -51 -807l6 -174l-14 -13q-42 7 -148 7q2 74 2 135z" />
<glyph unicode="&#x22;" horiz-adv-x="612" d="M72 1548h182l-27 -497l-118 6l2 192zM358 1548h183l-27 -497l-119 6l2 192z" />
<glyph unicode="#" horiz-adv-x="1167" d="M66 307v135l264 2l39 248l-263 -2v146h285l53 335l123 -20l-51 -315h227l54 335l123 -20l-52 -315h252v-136l-272 -4l-39 -247l270 4v-146h-293l-53 -338l-123 21l49 317h-225l-53 -338l-123 21l49 317h-241zM455 446l227 3l39 247l-227 -2z" />
<glyph unicode="$" horiz-adv-x="1067" d="M102 80l31 307l127 -12l-2 -111q0 -11 21 -119q106 -40 196 -47l21 500l-62 29q-53 25 -93 48t-85.5 58.5t-75 73.5t-49.5 90.5t-20 112.5q0 163 113.5 253.5t297.5 90.5h4l9 200l69 -6l-8 -198q114 -9 301 -58l-31 -295l-110 13l2 96q0 8 -4 22t-11.5 39t-11.5 39 q-76 29 -139 37l-21 -467l60 -31q47 -26 70 -39t65.5 -40.5t64.5 -47t52 -52t45 -63.5t26 -72t11 -87q0 -168 -119 -263t-305 -101l-6 -168l-72 6l6 164q-63 3 -124 14.5t-103 25.5t-75 27t-49 22zM301 1044q0 -75 51.5 -127t151.5 -106l18 436h-6q-93 0 -154 -53.5 t-61 -149.5zM545 98q102 8 160.5 66.5t58.5 159.5q0 79 -52 134t-149 105z" />
<glyph unicode="%" horiz-adv-x="1607" d="M84 1010q0 155 81 254.5t226 99.5t226 -99.5t81 -254.5v-2q0 -155 -81 -255t-226 -100t-226 100.5t-81 256.5zM238 1008q0 -48 7 -88.5t23.5 -77.5t48 -58.5t74.5 -21.5t74.5 21.5t48 58.5t24 78.5t7.5 89.5q0 47 -7.5 88t-24 78t-48 58t-74.5 21q-57 0 -93 -38.5 t-48 -90.5t-12 -118zM295 -35l889 1512l102 -66l-887 -1511zM866 334q0 155 81.5 254.5t226.5 99.5t226 -99.5t81 -254.5v-2q0 -155 -81 -255t-226 -100t-226.5 100.5t-81.5 256.5zM1020 332q0 -47 7.5 -88t24 -78t48 -58.5t74.5 -21.5t74.5 21.5t48 58.5t23.5 78.5t7 89.5 t-7 88.5t-23.5 77.5t-48 58.5t-74.5 21.5t-74.5 -21.5t-48 -58.5t-24 -78.5t-7.5 -89.5z" />
<glyph unicode="&#x26;" horiz-adv-x="1484" d="M102 389q0 250 256 402q-108 152 -108 278q0 148 102 217.5t271 69.5q70 0 170 -21.5t153 -42.5l-26 -286l-113 6q4 80 4 94l-20 98q-64 51 -168 51q-86 0 -139.5 -51t-53.5 -135q0 -47 20 -100t63.5 -114.5t87.5 -114.5t117.5 -126.5t126 -122.5t138.5 -129 q33 85 33 209q0 31 -19 117l-139 12l12 119h187l250 10l10 -108l-158 -33q-10 -70 -10 -141q0 -154 -66 -277l62 -57q3 -3 119 -88l161 -14l-14 -121q-100 10 -264 10h-43l-17 51l-94 94q-79 -79 -189 -122t-239 -43q-197 0 -330 112t-133 297zM285 403q0 -130 78 -215.5 t204 -85.5q218 0 336 127q-39 37 -121.5 114t-130.5 122.5t-111 110t-108 118.5q-147 -112 -147 -291z" />
<glyph unicode="'" horiz-adv-x="325" d="M72 1548h182l-27 -497l-118 6l2 192z" />
<glyph unicode="(" horiz-adv-x="555" d="M102 649q0 559 367 926l66 -53q-128 -187 -144 -230q-56 -150 -88.5 -302t-32.5 -341t32.5 -341t88.5 -302q7 -19 43 -76.5t68 -105.5l33 -47l-66 -53q-367 367 -367 925z" />
<glyph unicode=")" horiz-adv-x="555" d="M20 -223q128 186 144 229q56 150 88.5 302t32.5 341t-32.5 341t-88.5 302q-7 19 -43 76.5t-69 105.5l-32 48l66 53q367 -367 367 -926q0 -558 -367 -925z" />
<glyph unicode="*" horiz-adv-x="837" d="M88 1022l199 143l-99 78l-98 55l35 82l223 -102q19 121 19 125v115l88 10l24 -244q107 41 115 47l100 58l54 -72l-201 -143q78 -66 98 -76l100 -58l-34 -82l-226 101q-16 -102 -16 -125v-113l-88 -10l-25 244q-83 -30 -116 -47l-99 -58z" />
<glyph unicode="+" d="M45 446v154h451v447h143l4 -447h457v-143l-457 -6l6 -451h-153v451z" />
<glyph unicode="," horiz-adv-x="450" d="M70 -213q67 28 106 79t39 114q-54 4 -83.5 44.5t-29.5 98.5q0 62 34 101.5t93 39.5q67 0 98 -51t31 -131q0 -124 -70.5 -228.5t-197.5 -132.5z" />
<glyph unicode="-" horiz-adv-x="577" d="M61 596h455l-10 -154h-440z" />
<glyph unicode="." horiz-adv-x="436" d="M82 121q0 64 34.5 103.5t96.5 39.5t96.5 -38t34.5 -105q0 -64 -34.5 -102.5t-96.5 -38.5t-96.5 38.5t-34.5 102.5z" />
<glyph unicode="/" horiz-adv-x="770" d="M14 -96l637 1679l129 -41l-635 -1679z" />
<glyph unicode="0" horiz-adv-x="1187" d="M102 668q0 114 17 213.5t54.5 187.5t94 151t140 99.5t186.5 36.5q128 0 225 -55t154 -151.5t84.5 -217.5t27.5 -264t-27.5 -264t-84.5 -217.5t-154 -151.5t-225 -55q-103 0 -186.5 36.5t-140 99.5t-94 151t-54.5 187.5t-17 213.5zM305 668q0 -566 289 -566t289 566 q0 565 -289 565t-289 -565z" />
<glyph unicode="1" horiz-adv-x="796" d="M49 1038q240 189 281 222q10 8 34 37t43 54l19 25l96 -24q-14 -378 -14 -480v-530q0 -116 14 -217l168 -14l-14 -121q-109 10 -273 10l-276 -10l-10 102l202 33q19 128 19 156v792l-234 -121z" />
<glyph unicode="2" horiz-adv-x="1054" d="M74 150q183 184 287 293t182 198.5t110.5 146.5t46 103.5t13.5 103.5q0 109 -66 177.5t-170 68.5q-108 0 -205 -57q-20 -66 -20 -105l4 -92l-113 -6l-26 301q104 41 189 57.5t192 16.5q191 0 300 -87t109 -243q0 -76 -19.5 -142.5t-59.5 -136.5t-120.5 -160.5t-181 -189 t-262.5 -247.5h385q20 0 172 16q4 11 29 72l10 96l113 -8l-19 -291l-39 -41q-198 6 -247 6h-566z" />
<glyph unicode="3" horiz-adv-x="962" d="M27 -106q282 45 455 169.5t173 276.5q0 114 -77 183t-203 69q-36 0 -71.5 -1.5t-53.5 -2.5l-17 -2l-28 98q200 25 297.5 101t97.5 208q0 121 -57.5 186.5t-163.5 65.5q-52 0 -87.5 -10t-74.5 -35q-20 -81 -20 -102l4 -92l-113 -7l-27 297q174 60 324 60q198 0 303 -85.5 t105 -248.5q0 -112 -63.5 -199t-180.5 -137q145 -40 223 -128t78 -214q0 -138 -99 -256.5t-278 -198t-410 -104.5z" />
<glyph unicode="4" horiz-adv-x="1083" d="M10 520l738 993l141 -104q-254 -268 -285 -315l-383 -574l410 6v291l160 55v-335l188 12v-137h-188v-70q0 -116 14 -217l170 -14l-14 -121q-103 10 -267 10l-282 -10l-11 102l211 33q19 138 19 156v131h-531z" />
<glyph unicode="5" horiz-adv-x="946" d="M86 -106q102 14 189 38.5t162.5 63t128.5 87t83.5 114.5t30.5 143q0 130 -77 199t-222 69q-85 0 -197 -26l-75 43l34 673l39 37h140l497 21l12 -137q-364 -48 -425 -48h-132q-18 -260 -24 -444q85 18 168 18q212 0 334 -99t122 -286q0 -124 -56.5 -225.5t-158.5 -172 t-237.5 -115.5t-298.5 -62z" />
<glyph unicode="6" horiz-adv-x="1069" d="M92 504q0 132 33.5 262t104 254t171.5 225.5t245.5 177t316.5 107.5l24 -105q-156 -45 -279 -122.5t-201 -168t-129 -200t-72 -215t-21 -215.5q0 -77 16.5 -148t49 -130.5t88 -95.5t126.5 -36q118 0 188 93t70 223t-65 212.5t-185 82.5q-18 0 -51.5 -2.5t-57.5 -5.5 l-24 -3l-12 99q96 32 164 32q199 0 312.5 -109t113.5 -306q0 -122 -61 -222t-164.5 -155.5t-227.5 -55.5q-150 0 -258 68t-161.5 186t-53.5 273z" />
<glyph unicode="7" horiz-adv-x="1036" d="M123 1010l18 303l39 41q201 -19 250 -19h547l33 -80l-586 -1470l-160 51l438 1028q15 33 91 322h-344q-46 0 -175 -12q-25 -52 -28 -70l-10 -103z" />
<glyph unicode="8" horiz-adv-x="1064" d="M82 336q0 62 26 120.5t71 105.5t91.5 82.5t100.5 66.5q-54 31 -95 63t-76.5 75t-54 98t-18.5 120q0 101 57.5 177.5t148.5 114.5t199 38q107 0 198 -37.5t149.5 -115.5t58.5 -181q0 -58 -22.5 -112.5t-61.5 -98.5t-79.5 -77.5t-86.5 -61.5q65 -34 112.5 -68t91.5 -80 t67.5 -105t23.5 -128q0 -114 -63 -195t-163.5 -119t-224.5 -38q-91 0 -171 22t-143 64t-99.5 111.5t-36.5 158.5zM268 336q0 -117 74 -188.5t190 -71.5q110 0 187.5 71t77.5 181q0 32 -9.5 62t-22 53t-39 48.5t-45.5 41.5t-58 40.5t-60.5 36.5t-66.5 37q-14 5 -19 8 q-209 -146 -209 -319zM305 1071q0 -37 9.5 -69.5t30 -60t41.5 -49t57 -45t62.5 -39t71.5 -39.5q9 -5 13 -7l2 -2q168 137 168 303q0 101 -65.5 169t-162.5 68q-90 0 -158.5 -68t-68.5 -161z" />
<glyph unicode="9" horiz-adv-x="1075" d="M51 920q0 189 130.5 312.5t322.5 123.5q152 0 261.5 -69.5t163.5 -189t54 -276.5q0 -136 -30.5 -266t-98 -254.5t-165.5 -226t-242.5 -179t-319.5 -114.5l-29 106q113 36 208.5 87.5t165 111.5t123.5 131t89 143.5t57.5 152.5t31.5 155t9 153q0 77 -17 149.5t-50 133.5 t-88.5 98t-126.5 37q-119 0 -184.5 -92.5t-65.5 -226.5q0 -119 72.5 -205t185.5 -86q84 0 127 6l14 -96q-74 -31 -160 -31q-192 0 -315 113t-123 299z" />
<glyph unicode=":" horiz-adv-x="415" d="M82 111q0 60 32 96.5t89 36.5t89 -35t32 -98q0 -60 -32 -95.5t-89 -35.5t-89 35.5t-32 95.5zM82 834q0 60 32 96.5t89 36.5t89 -35t32 -98q0 -60 -32 -96t-89 -36t-89 36t-32 96z" />
<glyph unicode=";" horiz-adv-x="450" d="M70 -213q67 28 106 79t39 114q-54 4 -83.5 44.5t-29.5 98.5q0 62 34 101.5t93 39.5q67 0 98 -51t31 -131q0 -124 -70.5 -228.5t-197.5 -132.5zM106 834q0 60 32 96.5t89 36.5t89 -35t32 -98q0 -60 -32 -96t-89 -36t-89 36t-32 96z" />
<glyph unicode="&#x3c;" d="M209 506l618 545l109 -109l-518 -434l520 -430l-109 -109z" />
<glyph unicode="=" d="M106 244v135l932 10v-145h-932zM106 629v145h932v-135z" />
<glyph unicode="&#x3e;" d="M209 78l520 430l-518 434l108 109l619 -545l-621 -537z" />
<glyph unicode="?" horiz-adv-x="825" d="M68 1409q173 80 321 80q210 0 330.5 -118t120.5 -327q0 -187 -128.5 -297t-326.5 -110l8 -180l-14 -13q-42 7 -139 7l-9 6v264l54 49q62 -8 104 -8q120 0 189 79.5t69 205.5q0 91 -26.5 162.5t-85.5 117t-144 45.5q-103 0 -172 -53q-12 -43 -12 -119l4 -74h-119zM197 113 q0 60 31.5 95.5t88.5 35.5t89 -35.5t32 -95.5t-32 -96.5t-89 -36.5t-88.5 35t-31.5 98z" />
<glyph unicode="@" horiz-adv-x="1867" d="M82 475q0 137 28.5 262t94 241t163 201t245.5 136t331 51q191 0 347 -53t265.5 -151.5t169.5 -245t60 -328.5q0 -83 -22 -165t-67 -156t-108 -132t-151 -96.5t-189 -46.5l-37 28l-26 142q-41 -76 -138.5 -129t-207.5 -53q-127 0 -202 73.5t-75 198.5q0 103 60.5 164 t175.5 90q85 22 366 63v68q0 62 -8.5 110t-29 88.5t-59.5 62.5t-95 22q-111 0 -191 -39q-18 -90 -18 -97v-73l-119 -6l-22 276q183 49 370 49q101 0 168 -28t104 -87t51.5 -134.5t14.5 -184.5v-315q0 -18 6.5 -65t12.5 -84l6 -38q70 15 123 67t82.5 124t44 148.5t14.5 154.5 q0 200 -80 353t-234 239t-362 86q-121 0 -221 -30.5t-168.5 -80.5t-121.5 -119.5t-83.5 -140.5t-49.5 -151t-25.5 -143.5t-6.5 -125.5q0 -139 23 -256t74.5 -216t130 -167.5t195 -107t263.5 -37.5q32 0 128.5 20.5t177.5 40.5l81 21l33 -64q-35 -16 -90 -40t-169 -64.5 t-161 -40.5q-199 0 -354 55t-251 143t-157.5 210t-85.5 244.5t-24 258.5zM743 262q0 -72 39 -111.5t111 -39.5q103 0 180 65.5t92 165.5v123q-212 -35 -293 -55q-129 -33 -129 -148z" />
<glyph unicode="A" horiz-adv-x="1359" d="M20 90l130 35l88 203l366 1116l119 20l422 -1159l80 -174l127 -20l-11 -111h-206l-293 -10l-8 100l149 41l-55 221l-43 123h-451l-65 -215l-21 -129l144 -20l-11 -111h-176l-276 -10zM471 578l373 8l-193 555z" />
<glyph unicode="B" horiz-adv-x="1224" d="M98 92l150 33q18 122 18 156v882q0 35 -18 156l-146 24l11 111q152 -8 209 -10q57 1 174.5 10.5t183.5 9.5q165 0 277 -94.5t112 -257.5q0 -132 -79 -227.5t-206 -126.5v-15q159 -24 254 -119t95 -249q0 -173 -119.5 -279t-298.5 -106q-49 0 -181.5 4.5t-211.5 5.5 l-213 -10zM453 342q0 -146 12 -221q102 -12 186 -12q125 0 200 73.5t75 208.5q0 99 -49 168.5t-124.5 100t-170.5 30.5h-23l14 117h15q128 0 209.5 74t81.5 206q0 122 -67 194.5t-175 72.5q-59 0 -170 -13q-14 -95 -14 -239v-760z" />
<glyph unicode="C" horiz-adv-x="1249" d="M86 721q0 168 41.5 306t121.5 238t204 155t282 55q31 0 62.5 -2t55 -4t58 -8t49.5 -8.5t54 -11.5t46.5 -11t51.5 -13t47 -12l-20 -303l-121 8v96q0 18 -25 103q-139 47 -258 47q-143 0 -243.5 -85.5t-147.5 -226t-47 -321.5t47 -322t147 -227t242 -86q136 0 279 45 q28 94 28 115l4 96l121 4l13 -309q-85 -22 -139 -34t-140.5 -24t-163.5 -12q-158 0 -282 54.5t-204 154.5t-121.5 237.5t-41.5 305.5z" />
<glyph unicode="D" horiz-adv-x="1476" d="M86 92l162 33q18 122 18 156v882q0 35 -18 156l-158 24l10 111q131 -6 201 -10q53 2 180.5 11t202.5 9q339 0 523 -198t184 -545q0 -218 -84 -383t-244.5 -257.5t-378.5 -92.5q-36 0 -157.5 6t-188.5 6l-242 -10zM453 342q0 -44 3 -98.5t6.5 -88t4.5 -38.5q106 -8 219 -8 q100 0 183 31.5t141.5 87t99 132.5t59.5 167.5t19 193.5q0 104 -19 196t-59.5 170t-99 134.5t-141.5 88t-183 31.5q-134 0 -219 -10q-14 -137 -14 -229v-760z" />
<glyph unicode="E" horiz-adv-x="1204" d="M86 92l162 33q18 122 18 156v882q0 35 -18 156l-158 24l10 111q197 -10 238 -10h459q18 0 76.5 5t107.5 10l49 5l39 -37l14 -278l-118 -10q-5 39 -23 110q-3 18 -41 70q-112 10 -166 10h-268q-14 -151 -14 -227v-291q70 -4 88 -4h149q18 0 49 4.5t53 8.5l21 5l18 136 l95 -11q-2 -131 -2 -172l6 -223l-99 -12l-18 137q-123 12 -164 12h-108q-35 0 -88 -6v-344q0 -88 14 -225h295q77 0 178 18q39 56 43 76q2 10 15.5 64t15.5 73l112 -10l-30 -309l-39 -37q-193 8 -234 8h-485l-242 -10z" />
<glyph unicode="F" horiz-adv-x="1130" d="M86 92l162 33q18 122 18 156v882q0 35 -18 156l-158 24l10 111q197 -10 238 -10h459q18 0 76.5 5t107.5 10l49 5l39 -37l14 -278l-118 -10q-5 39 -23 110q-3 18 -41 70q-112 10 -166 10h-268q-14 -151 -14 -227v-307q70 -4 88 -4h149q18 0 49 4.5t53 8.5l21 5l18 135 l95 -10q-2 -131 -2 -172l6 -223l-99 -13l-18 138q-123 12 -164 12h-108q-35 0 -88 -6v-328q0 -116 14 -217l205 -14l-15 -121q-155 10 -319 10l-242 -10z" />
<glyph unicode="G" horiz-adv-x="1363" d="M86 721q0 226 75.5 393.5t231 264t377.5 96.5q29 0 57 -1t57 -4t50.5 -5.5t53 -8t47 -8.5t49.5 -10.5t44.5 -10t48 -11.5t44.5 -11l-23 -303l-119 12v92q0 19 -24 101q-163 49 -291 49q-116 0 -207 -49t-148 -135t-86.5 -200t-29.5 -249t29.5 -249t86.5 -201t148 -136 t207 -49q136 0 287 41q24 106 24 133v139q0 18 -5 54.5t-10 64.5l-5 27l-217 16l10 119h227l146 6l36 -35q-18 -211 -18 -313v-301q-92 -22 -148 -34t-147.5 -24t-173.5 -12q-167 0 -297.5 54.5t-215 154.5t-128 237.5t-43.5 305.5z" />
<glyph unicode="H" horiz-adv-x="1583" d="M86 92l162 33q18 122 18 156v882q0 35 -18 156l-158 24l10 111q197 -10 238 -10q73 0 143 2.5t103 5.5l34 2l9 -121l-160 -14q-14 -101 -14 -217v-328l677 10v379q0 35 -18 156l-158 24l11 111q196 -10 237 -10q73 0 143 2.5t104 5.5l34 2l8 -121l-160 -14 q-14 -101 -14 -217v-760q0 -116 14 -217l185 -14l-15 -121q-135 10 -299 10l-241 -10l-11 102l162 33q18 121 18 156v389h-677v-328q0 -116 14 -217l184 -14l-14 -121q-135 10 -299 10l-242 -10z" />
<glyph unicode="I" horiz-adv-x="743" d="M98 92l162 33q19 128 19 156v882q0 28 -19 156l-158 24l11 111q196 -10 237 -10q73 0 143 2.5t104 5.5l34 2l8 -121l-160 -14q-14 -101 -14 -217v-760q0 -116 14 -217l185 -14l-15 -121q-135 10 -299 10l-241 -10z" />
<glyph unicode="J" horiz-adv-x="679" d="M82 1343l10 111q197 -10 238 -10q73 0 143 2.5t103 5.5l34 2l8 -121l-159 -14q-15 -109 -15 -217v-1122q0 -55 -280 -390l-70 45q164 347 164 388v1140q0 35 -18 156z" />
<glyph unicode="K" horiz-adv-x="1429" d="M86 92l162 33q18 122 18 156v882q0 35 -18 156l-158 24l10 111q197 -10 238 -10q73 0 143 2.5t103 5.5l34 2l9 -121l-160 -14q-14 -101 -14 -217v-760q0 -116 14 -217l184 -14l-14 -121q-135 10 -299 10l-242 -10zM473 723l373 459l80 139l-111 22l10 111 q176 -10 217 -10q73 0 138 2.5t94 5.5l29 2l8 -121l-156 -14q-106 -98 -209 -201l-270 -360q40 -45 195 -222t237 -272q30 -32 158 -139l143 -14l-14 -121q-125 10 -289 10l-262 -10l-10 102l120 29q-97 156 -143 215z" />
<glyph unicode="L" horiz-adv-x="1093" d="M86 92l162 33q18 122 18 156v882q0 35 -18 156l-158 24l10 111q197 -10 238 -10q73 0 143 2.5t103 5.5l34 2l9 -121l-160 -14q-14 -101 -14 -217v-760q0 -117 14 -225h242q77 0 178 18q41 59 43 76q27 105 31 137l112 -10l-31 -309l-38 -37q-193 8 -234 8h-432l-242 -10z " />
<glyph unicode="M" horiz-adv-x="1900" d="M55 92l160 33q1 6 16 65t19 80l53 895q0 96 -8 154l-168 24l10 111l283 -8h115l38 -43q89 -271 107 -320l272 -725l279 742q9 20 36 95.5t49 141.5l23 66l41 41h54q73 0 152 2.5t122 5.5l43 2l8 -121l-164 -14q-6 -38 -6 -154l70 -895q3 -15 9.5 -44.5t14 -61t9.5 -39.5 l166 -14l-13 -121q-135 10 -299 10l-243 -10l-11 102l160 33q10 155 10 207l-55 864l-449 -1196h-73l-449 1196l-49 -864q0 -42 10 -207l166 -14l-14 -121q-104 10 -264 10l-219 -10z" />
<glyph unicode="N" horiz-adv-x="1558" d="M84 1343l10 111q197 -10 238 -10l90 2l41 -43q168 -273 199 -318l536 -751v809q0 59 -18 170l-162 12l12 123l168 -4q72 0 152 2.5t124 5.5l44 2l10 -108l-162 -33q-31 -151 -31 -232v-473l-2 -622h-123l-807 1153v-797q0 -108 15 -217l166 -14l-15 -121q-88 10 -252 10 l-221 -10l-10 102l162 33q18 122 18 156v882q0 17 -18 156z" />
<glyph unicode="O" horiz-adv-x="1515" d="M86 721q0 226 74.5 394t227.5 264t370 96t370 -96t227.5 -264t74.5 -394q0 -225 -74.5 -392.5t-227.5 -263.5t-370 -96t-370 96t-227.5 263.5t-74.5 392.5zM305 721q0 -135 28.5 -250.5t83 -204t142.5 -138.5t199 -50t198.5 50t142.5 138.5t83 203.5t28 251t-28 252 t-83 204.5t-142.5 138.5t-198.5 50q-148 0 -252 -88t-152.5 -231t-48.5 -326z" />
<glyph unicode="P" horiz-adv-x="1200" d="M86 92l162 33q18 122 18 156v882q0 35 -18 156l-158 24l10 111q133 -8 203 -10q53 1 191 10.5t188 9.5q216 0 336.5 -111t120.5 -325q0 -134 -69.5 -233.5t-182.5 -149t-252 -49.5q-125 0 -182 2v-256q0 -116 14 -217l192 -14l-14 -121q-143 10 -307 10l-242 -10z M453 707q119 -9 141 -9q164 0 258 84t94 246q0 163 -93.5 248.5t-256.5 85.5q-41 0 -129 -10q-14 -124 -14 -250v-395z" />
<glyph unicode="Q" horiz-adv-x="1525" d="M86 721q0 226 74.5 394t227.5 264t370 96t370 -96t227.5 -264t74.5 -394q0 -274 -112.5 -463.5t-328.5 -255.5l178 -125q15 -10 96 -47t155 -68l73 -32l-121 -189l-536 432q-50 -4 -76 -4q-217 0 -370 96t-227.5 263.5t-74.5 392.5zM305 721q0 -135 28.5 -250.5t83 -204 t142.5 -138.5t199 -50t198.5 50t142.5 138.5t83 203.5t28 251t-28 252t-83 204.5t-142.5 138.5t-198.5 50q-148 0 -252 -88t-152.5 -231t-48.5 -326z" />
<glyph unicode="R" horiz-adv-x="1323" d="M86 92l162 33q18 122 18 156v882q0 25 -18 156l-158 24l10 111q137 -6 205 -10q44 2 183.5 11t191.5 9q215 0 334 -107.5t119 -316.5q0 -146 -81.5 -247t-217.5 -146q45 -87 96.5 -178t82 -141t38.5 -60q19 -32 100 -143l147 -14l-14 -121q-159 10 -323 10 q-86 189 -113 238l-201 378h-14q-125 0 -180 2v-276q0 -116 14 -217l184 -14l-14 -121q-135 10 -299 10l-242 -10zM453 727q102 -8 139 -8q163 0 255.5 81t92.5 238q0 158 -92 241t-254 83q-23 0 -125 -12q-16 -102 -16 -248v-375z" />
<glyph unicode="S" horiz-adv-x="1144" d="M102 78l31 315l135 -12v-98q0 -33 23 -136q137 -55 266 -55q125 0 197.5 66.5t72.5 189.5q0 54 -24 99.5t-64.5 80t-92.5 65.5t-110 60t-116 59.5t-110 68t-92.5 81t-64.5 103.5t-24 131q0 179 123.5 279t320.5 100q152 0 414 -66l-29 -309l-120 12v90q0 9 -27 115 q-61 26 -115.5 35.5t-128.5 9.5q-101 0 -167 -59t-66 -168q0 -51 24 -95t65 -77.5t94.5 -64.5t112 -60.5t117 -61t112 -71t94.5 -85.5t65 -109.5t24 -137.5q0 -131 -67 -224.5t-175.5 -136.5t-246.5 -43q-77 0 -151.5 11t-126.5 27.5t-92.5 32.5t-60.5 27z" />
<glyph unicode="T" horiz-adv-x="1218" d="M20 1133l15 294l39 37q192 -20 233 -20h604q18 0 76.5 5t108.5 10l49 5l39 -37l14 -294l-119 -11q-10 79 -22 127q-3 18 -41 70q-112 10 -166 10h-133q-15 -154 -15 -227v-760q0 -108 15 -217l184 -14l-14 -121q-135 10 -299 10l-242 -10l-10 102l162 33q18 122 18 156 v882q0 14 -3.5 45.5t-8.5 69.5t-6 51h-129q-53 0 -166 -10q-38 -52 -41 -70q-14 -56 -23 -127z" />
<glyph unicode="U" horiz-adv-x="1488" d="M35 1343l10 111q197 -10 238 -10q73 0 146.5 2.5t110.5 5.5l38 2l8 -121l-162 -14q-14 -109 -14 -227v-547q0 -202 90 -323.5t262 -121.5q178 0 271 121.5t93 323.5v608q0 21 -20 166l-160 24l10 111q177 -10 218 -10q73 0 140 2.5t98 5.5l30 2l8 -121l-162 -14 q-14 -108 -14 -227v-547q0 -268 -136.5 -422t-394.5 -154q-257 0 -392.5 154t-135.5 422v608q0 27 -18 166z" />
<glyph unicode="V" horiz-adv-x="1419" d="M-2 1333l10 111h223l301 10l9 -100l-162 -41q16 -104 61 -221l301 -789l306 881q6 19 11.5 51.5t7.5 54.5l3 23l-156 20l11 111h184l293 10l8 -100l-139 -35q-55 -92 -94 -203l-390 -1116h-124l-441 1139q-13 34 -35 77.5t-38 69.5l-15 27z" />
<glyph unicode="W" horiz-adv-x="2070" d="M2 1333l10 111h224l301 10l8 -100l-162 -41q24 -117 55 -221l236 -789l323 1100h109l346 -1100l252 881q6 24 11.5 56t8.5 52l2 21l-155 20l10 111h184l293 10l8 -100l-139 -35q-69 -123 -94 -203l-336 -1116h-125l-342 1036l-311 -1036h-125l-375 1139 q-13 38 -33.5 81.5t-34.5 67.5l-14 25z" />
<glyph unicode="X" horiz-adv-x="1470" d="M37 86l125 35q165 172 196 215l269 391l-295 416q-52 74 -127 170l-166 20l14 113q142 -2 183 -2l382 10l11 -96l-162 -45q57 -140 84 -176l194 -273l199 320q17 30 68 129l-160 20l14 113q107 -2 164 -2l352 10l11 -96l-142 -33q-124 -113 -161 -160l-265 -411l346 -484 q47 -57 125 -139l162 -20l-14 -113q-133 2 -164 2l-377 -10l-10 96l135 37q-55 121 -92 168l-231 325l-234 -346q-21 -34 -72 -139l164 -20l-14 -113q-119 2 -164 2l-338 -10z" />
<glyph unicode="Y" horiz-adv-x="1357" d="M12 1333l11 111h223l301 10l8 -100l-162 -41q22 -100 88 -221l207 -387l236 479l57 129l-156 20l11 111h184l293 10l8 -100l-139 -35q-74 -97 -129 -203l-287 -557v-217q0 -116 14 -217l185 -14l-15 -121q-135 10 -299 10l-241 -10l-11 102l162 33q19 128 19 156v245 l-318 613q-19 37 -48 80.5t-48 68.5l-19 25z" />
<glyph unicode="Z" horiz-adv-x="1140" d="M55 117q169 234 230 332l389 616l143 258h-375q-64 0 -176 -10l-33 -70q-18 -71 -26 -172l-119 10l14 346l39 37q193 -20 234 -20h678l14 -115l-221 -317l-391 -621l-150 -270h416q79 0 180 18q38 51 41 72q22 87 31 158l112 -11l-30 -329l-39 -37q-193 8 -234 8h-712z " />
<glyph unicode="[" horiz-adv-x="542" d="M154 -209q20 352 20 393v944l-20 394l39 39q63 0 143.5 2t129.5 4l50 2l6 -88l-172 -25q-28 -123 -28 -225v-1149q0 -45 7 -101.5t14 -90.5l7 -33l172 -25l-6 -88q-182 8 -323 8z" />
<glyph unicode="\" horiz-adv-x="815" d="M14 1542l129 41l637 -1679l-131 -41z" />
<glyph unicode="]" horiz-adv-x="542" d="M20 -168l173 25q28 123 28 225v1149q0 45 -7 101.5t-14 89.5l-7 34l-173 25l7 88q182 -8 323 -8l39 -39q-20 -353 -20 -394v-944l20 -393l-39 -39q-63 0 -143.5 -2t-130.5 -4l-49 -2z" />
<glyph unicode="^" d="M20 731l553 760l553 -760l-129 -90l-424 619l-423 -619z" />
<glyph unicode="_" horiz-adv-x="1032" d="M0 -322h1032l-10 -153h-1018z" />
<glyph unicode="`" horiz-adv-x="737" d="M135 1423l96 123l369 -307l-68 -84l-149 123q-14 10 -76 46.5t-117 67.5z" />
<glyph unicode="a" horiz-adv-x="1056" d="M92 242q0 226 275 272l327 55v68q0 283 -192 283q-111 0 -195 -41l-14 -86v-84l-119 -7l-22 279q183 49 370 49q183 0 260.5 -99.5t77.5 -334.5v-254q0 -45 5 -99.5t11 -86.5l5 -31l141 -14l-14 -121q-101 10 -265 10l-28 162q-40 -78 -133 -130t-193 -52 q-136 0 -216.5 71t-80.5 191zM272 272q0 -77 39 -119t111 -42q103 0 180 65.5t92 165.5v123l-293 -55q-61 -10 -95 -47t-34 -91z" />
<glyph unicode="b" horiz-adv-x="1134" d="M20 1448l11 108q147 -8 188 -8h119l39 -37q-15 -211 -15 -313v-324q44 67 116 111.5t169 44.5q99 0 177.5 -39t128 -108t75 -160t25.5 -199q0 -148 -55.5 -270.5t-164.5 -198t-251 -75.5q-206 0 -402 73q17 187 17 228v979q0 18 -5.5 57t-10.5 69l-5 29zM362 342 q0 -122 15 -223q98 -25 192 -25q64 0 115 23t84.5 62t55 94t31 116t9.5 131q0 385 -248 385q-82 0 -141.5 -51.5t-86 -127.5t-26.5 -165v-219z" />
<glyph unicode="c" horiz-adv-x="954" d="M82 504q0 242 121 384t350 142q25 0 48 -1.5t49 -6t40 -7t45.5 -12t41 -12.5t49 -16.5t48.5 -16.5l-20 -256l-119 7v73q0 19 -14 70q-73 61 -168 61q-74 0 -129.5 -34.5t-87 -94t-47 -129.5t-15.5 -151q0 -80 15 -148t47 -124t87.5 -87.5t129.5 -31.5q71 0 143 18.5 t108 36.5l36 18l57 -96q-5 -4 -15.5 -11.5t-45 -26.5t-72 -33.5t-95.5 -26.5t-118 -12q-229 0 -349 141t-120 383z" />
<glyph unicode="d" horiz-adv-x="1153" d="M84 506q0 243 115.5 383.5t314.5 140.5q66 0 121 -10t135 -39v279q0 18 -5 57t-10 69l-5 29l-181 33l11 108q172 -8 213 -8h118l39 -37q-14 -211 -14 -313v-856q0 -45 5 -99.5t10 -86.5l5 -31l142 -14l-15 -121q-100 10 -264 10l-28 164q-31 -70 -122 -127t-173 -57 q-192 0 -302 140t-110 386zM272 504q0 -183 64 -288t174 -105q123 0 191.5 82.5t68.5 230.5v407q-113 74 -235 74q-125 0 -194 -105.5t-69 -295.5z" />
<glyph unicode="e" horiz-adv-x="978" d="M82 502q0 240 114 384t332 144q394 0 394 -477l-35 -68h-613q3 -97 33 -178.5t94 -137.5t152 -56q77 0 153.5 21t113.5 42l38 21l57 -95q-5 -5 -15.5 -13t-45.5 -29t-74 -37.5t-100.5 -29.5t-126.5 -13q-226 0 -348.5 142t-122.5 380zM276 588l455 35q2 31 2 41 q0 115 -54.5 187.5t-158.5 72.5q-60 0 -106.5 -28t-74 -77t-42.5 -106t-21 -125z" />
<glyph unicode="f" horiz-adv-x="718" d="M74 92l155 33q21 115 21 156v620h-158l-6 86q20 7 58.5 18t61.5 20t44 22v176q0 164 93 259t267 95q37 0 90 -5.5t87 -10.5l34 -5l-22 -276l-109 6v74q0 20 -24 106q-8 0 -28.5 1t-27.5 1q-54 0 -91 -15.5t-57 -39t-30.5 -67.5t-13 -83t-2.5 -104v-147h286l-10 -111h-276 v-559q0 -45 3.5 -99.5t6.5 -86.5l4 -31l201 -14l-15 -121q-141 10 -305 10l-227 -10z" />
<glyph unicode="g" horiz-adv-x="1034" d="M66 -184q0 27 51.5 84.5t134.5 122.5q-55 23 -80 59t-25 90q0 40 148 164q-87 46 -135.5 130t-48.5 193q0 167 108.5 269t286.5 102q119 0 215 -49l250 39v-119l-164 12q94 -97 94 -254q0 -167 -108 -268.5t-287 -101.5q-74 0 -139 18q-56 -65 -56 -86q0 -30 37.5 -43.5 t155.5 -27.5q23 -3 84.5 -10.5t94.5 -12t80.5 -11.5t80.5 -14t55 -14q92 -28 92 -178q0 -161 -152.5 -276t-367.5 -115q-199 0 -302 75.5t-103 221.5zM242 -162q0 -104 69 -153.5t217 -49.5q127 0 208 59t81 152q0 46 -17.5 66.5t-62.5 26.5l-266 34q-76 8 -141 25 q-53 -64 -70.5 -97t-17.5 -63zM289 659q0 -266 217 -266t217 266q0 267 -217 267t-217 -267z" />
<glyph unicode="h" horiz-adv-x="1216" d="M39 92l158 33q5 20 12.5 74.5t7.5 81.5v979q0 18 -5 57t-10 69l-5 29l-156 33l10 108q148 -8 189 -8h118l39 -37q-14 -147 -14 -313v-324q46 68 121 112t172 44q83 0 144.5 -22t100 -60t61.5 -98t31.5 -127.5t8.5 -157.5v-223q0 -45 3.5 -99.5t6.5 -86.5l4 -31l160 -14 l-14 -121q-100 10 -264 10l-209 -10l-11 102l138 33q20 90 20 156v284q0 340 -211 340q-120 0 -190 -95.5t-72 -248.5v-219q0 -121 12 -217l160 -14l-14 -121q-101 10 -265 10l-227 -10z" />
<glyph unicode="i" horiz-adv-x="616" d="M74 92l155 33q21 115 21 156v442q0 18 -5 57t-11 69l-5 30l-155 32l10 109q147 -8 188 -8h119l39 -37q-14 -211 -14 -313v-320q0 -45 3.5 -99.5t6.5 -86.5l4 -31l160 -14l-15 -121q-100 10 -264 10l-227 -10zM213 1341q0 60 32 97t89 37t89 -35.5t32 -98.5 q0 -60 -32 -95.5t-89 -35.5t-89 35.5t-32 95.5z" />
<glyph unicode="j" horiz-adv-x="571" d="M51 911l10 109q148 -8 189 -8h119l39 -37q-15 -211 -15 -313v-682q0 -36 -62 -151.5t-124 -212.5l-62 -97l-73 43q155 399 155 481v680q0 18 -5 57t-10 69l-5 30zM168 1341q0 60 32 97t89 37t89 -35.5t32 -98.5q0 -60 -32 -95.5t-89 -35.5t-89 35.5t-32 95.5z" />
<glyph unicode="k" horiz-adv-x="1171" d="M39 92l158 33q5 20 12.5 74.5t7.5 81.5v979q0 18 -5 57t-10 69l-5 29l-156 33l10 108q148 -8 189 -8h118l39 -37q-14 -147 -14 -313v-856q0 -121 12 -217l160 -14l-14 -121q-101 10 -265 10l-227 -10zM406 543l337 352l-88 16l11 107q137 -6 178 -6q73 0 138 2.5t94 5.5 l28 2l6 -119l-154 -16q-149 -81 -202 -137l-166 -179l280 -307q10 -11 38.5 -33t78 -57.5t68.5 -50.5l129 -12l-15 -121q-100 10 -264 10l-209 -4l-10 102l117 23l-105 115z" />
<glyph unicode="l" horiz-adv-x="600" d="M39 92l158 33q5 20 12.5 74.5t7.5 81.5v979q0 18 -5 57t-10 69l-5 29l-156 33l10 108q148 -8 189 -8h118l39 -37q-14 -147 -14 -313v-856q0 -121 12 -217l160 -14l-14 -121q-101 10 -265 10l-227 -10z" />
<glyph unicode="m" horiz-adv-x="1822" d="M74 92l155 33q17 98 21 145v453q0 18 -5 57t-11 69l-5 30l-155 32l10 109q147 -8 188 -8h74l39 -37l12 -131q41 79 120.5 132.5t187.5 53.5q118 0 186 -49t98 -145q48 84 130.5 139t191.5 55q77 0 133 -22t91 -60t56 -98t29 -127.5t8 -157.5v-223q0 -45 3.5 -99.5 t6.5 -86.5l4 -31l160 -14l-14 -121q-100 10 -264 10l-209 -10l-10 102l137 33q20 90 20 156v284q0 340 -186 340q-112 0 -180.5 -89.5t-73.5 -235.5v-15v-223q0 -45 3.5 -99.5t6.5 -86.5l4 -31l160 -14l-14 -121q-100 10 -264 10l-209 -10l-11 102l138 33q20 90 20 156v284 q0 340 -186 340q-114 0 -183 -95.5t-71 -248.5v-219q0 -45 3.5 -99.5t6.5 -86.5l4 -31l160 -14l-15 -121q-100 10 -264 10l-227 -10z" />
<glyph unicode="n" horiz-adv-x="1249" d="M74 92l155 33q17 98 21 145v453q0 18 -5 57t-11 69l-5 30l-155 32l10 109q147 -8 188 -8h74l39 -37l12 -131q41 79 122 132.5t190 53.5q83 0 144.5 -22t100 -60t61.5 -98t31.5 -127.5t8.5 -157.5v-223q0 -45 3.5 -99.5t7.5 -86.5l3 -31l160 -14l-15 -121q-100 10 -264 10 l-209 -10l-10 102l137 33q21 95 21 156v284q0 340 -211 340q-120 0 -190 -95.5t-72 -248.5v-219q0 -45 3.5 -99.5t6.5 -86.5l4 -31l160 -14l-15 -121q-100 10 -264 10l-227 -10z" />
<glyph unicode="o" horiz-adv-x="1105" d="M82 504q0 241 121.5 383.5t349.5 142.5q231 0 351 -141t120 -385q0 -240 -121.5 -382t-349.5 -142t-349.5 142t-121.5 382zM274 504q0 -83 14.5 -153.5t45.5 -129t87 -92t132 -33.5t132 33.5t86.5 92.5t45 128.5t14.5 153.5t-14.5 154t-45 129t-86.5 92.5t-132 33.5 t-132 -33.5t-87 -92.5t-45.5 -129.5t-14.5 -153.5z" />
<glyph unicode="p" horiz-adv-x="1144" d="M31 911l10 109q147 -8 188 -8h74l39 -37l12 -131q32 75 119 130.5t170 55.5q200 0 310 -132.5t110 -373.5q0 -236 -133.5 -390t-337.5 -154q-105 0 -219 51v-156q0 -45 3.5 -99.5t7.5 -85.5l3 -32l201 -14l-15 -121q-139 10 -303 10l-209 -10l-10 102l135 33 q21 98 21 145v920q0 18 -5.5 57t-10.5 69l-5 30zM373 176q109 -74 207 -74q145 0 222 108t77 310q0 190 -63.5 287.5t-188.5 97.5q-115 0 -184.5 -88.5t-69.5 -234.5v-406z" />
<glyph unicode="q" horiz-adv-x="1112" d="M82 506q0 235 118.5 379.5t311.5 144.5q101 0 186 -14.5t252 -59.5q-16 -195 -16 -297v-784q0 -45 3.5 -99.5t6.5 -85.5l4 -32l137 -14l-14 -121q-139 10 -303 10l-209 -10l-10 102l199 33q20 115 20 156v313q-45 -61 -124.5 -104t-149.5 -43q-192 0 -302 140t-110 386z M270 504q0 -183 64 -288t174 -105q120 0 187.5 78.5t72.5 220.5v311q0 53 -14 162q-113 22 -222 22q-120 0 -191 -109t-71 -292z" />
<glyph unicode="r" horiz-adv-x="864" d="M74 92l155 33q21 115 21 156v442q0 18 -5 57t-11 69l-5 30l-155 32l10 109q147 -8 188 -8h74l39 -37l12 -135q60 98 140 144t190 46q34 0 68.5 -5t52.5 -10l18 -5l-20 -338l-119 6v108q0 14 -29 103h-8q-137 -1 -202.5 -79t-71.5 -228v-240q0 -45 3.5 -99.5t6.5 -86.5 l4 -31l201 -14l-15 -121q-141 10 -305 10l-227 -10z" />
<glyph unicode="s" horiz-adv-x="864" d="M86 59l23 279l118 -6v-78q0 -30 31 -121q62 -49 172 -49q186 0 186 156q0 43 -28.5 78.5t-74.5 61t-101 50t-110 53.5t-101 64t-74.5 89.5t-28.5 121.5q0 126 93 199t239 73q136 0 307 -35l-24 -293l-119 7v73q0 20 -29 117q-60 25 -137 25q-76 0 -121 -35.5t-45 -97.5 q0 -42 29 -76.5t75 -60t101.5 -50.5t111 -54t101.5 -64t75 -88t29 -119q0 -299 -360 -299q-90 0 -174.5 20t-123.5 40z" />
<glyph unicode="t" horiz-adv-x="704" d="M41 987q20 7 58.5 18t61.5 20t44 22q7 9 30.5 55t43.5 88l20 41l72 -8v-211h286l-10 -111h-276v-631q0 -159 110 -159q33 0 73.5 14.5t64.5 29.5l24 15l57 -84q-44 -34 -71 -52t-74.5 -36t-95.5 -18q-141 0 -197.5 81.5t-56.5 257.5v582h-158z" />
<glyph unicode="u" horiz-adv-x="1212" d="M47 911l10 109q127 -8 168 -8h119l39 -37q-14 -211 -14 -313v-287q0 -264 202 -264q120 0 189 94t69 225v293q0 18 -5 57t-10 69l-5 30l-145 32l10 109q137 -8 178 -8h119l39 -37q-15 -211 -15 -313v-320q0 -45 5.5 -99.5t10.5 -86.5l5 -31l141 -14l-14 -121 q-100 10 -264 10l-27 160q-103 -180 -317 -180q-83 0 -143 22.5t-96 60.5t-57.5 99.5t-28.5 126.5t-7 155v279q0 18 -5.5 57t-10.5 69l-5 30z" />
<glyph unicode="v" horiz-adv-x="1085" d="M2 911l10 107q142 -6 183 -6q73 0 139.5 2.5t96.5 5.5l30 2l6 -119l-123 -14q35 -136 49 -174l176 -504l170 508q12 31 41 170l-153 22l10 107q131 -6 172 -6q73 0 136 2.5t89 5.5l27 2l6 -119l-113 -12q-67 -149 -102 -238l-236 -653h-137q-252 660 -268 705 q-28 81 -84 184z" />
<glyph unicode="w" horiz-adv-x="1638" d="M12 911l11 107q100 -6 141 -6q73 0 149.5 2.5t116.5 5.5l41 2l6 -119l-164 -14q35 -136 49 -174l177 -504l260 801h80l274 -801l170 508q12 31 41 170l-174 22l10 107q152 -6 193 -6q73 0 130.5 2.5t78.5 5.5l22 2l6 -119l-92 -12q-67 -149 -102 -238l-236 -653h-139 l-242 686l-233 -686h-137q-253 660 -269 705q-28 81 -84 184z" />
<glyph unicode="x" horiz-adv-x="1112" d="M25 92l127 33l165 180l140 199l-160 219l-150 168l-88 20l11 107q127 -6 168 -6q73 0 138 2.5t94 5.5l28 2l6 -119l-123 -14l59 -96l121 -175l113 175l51 94l-131 24l10 107q117 -6 158 -6q73 0 138 2.5t94 5.5l28 2l6 -119l-125 -16l-139 -164l-127 -195l166 -223 l180 -184l125 -10l-14 -121q-109 10 -273 10l-209 -10l-10 102l127 31l-65 113l-127 176l-123 -176l-64 -111l129 -14l-14 -121q-68 10 -232 10l-198 -10z" />
<glyph unicode="y" horiz-adv-x="1103" d="M0 911l10 107q127 -6 168 -6q73 0 143 2.5t104 5.5l34 2l6 -119l-148 -14q25 -107 52 -174l202 -502l179 475q31 87 55 199l-150 24l11 107q137 -6 178 -6q69 0 128 2.5t83 5.5l24 2l6 -119l-108 -16q-78 -160 -107 -234l-421 -1134l-330 22l16 119l82 -2q30 0 137 20 q52 73 78 140l66 182l-293 682q-27 69 -105 205z" />
<glyph unicode="z" horiz-adv-x="942" d="M84 119q164 180 195 225l253 377q42 68 103 184h-250q-19 0 -109 -12q-12 -22 -30 -67t-19 -60l-8 -80l-119 8l11 285l36 39q154 -6 195 -6h496l14 -119l-176 -223l-250 -379q-27 -43 -102 -185h256q14 0 120 13q34 71 45 104q1 2 13 82l119 -12l-19 -260l-37 -39 q-184 6 -225 6h-498z" />
<glyph unicode="{" horiz-adv-x="557" d="M72 627l8 59q19 0 72 32t67 60q0 109 -15 294.5t-30 316.5l-16 131l41 41q63 0 145.5 2t133.5 4l52 2l7 -88l-179 -25q-16 -184 -16 -225q0 -61 9 -250t9 -250q-18 -16 -46.5 -32.5t-47.5 -24.5l-20 -8v-19q73 -28 114 -65q0 -62 -9 -250.5t-9 -249.5l16 -225l179 -25 l-7 -88q-190 8 -331 8l-41 41q61 496 61 742q-14 29 -68.5 60.5t-78.5 31.5z" />
<glyph unicode="|" horiz-adv-x="571" d="M219 -231v1787l133 -16v-1790z" />
<glyph unicode="}" horiz-adv-x="557" d="M20 -168l179 25q16 184 16 225q0 61 -9 249.5t-9 250.5q18 16 46.5 32.5t48.5 24.5l19 8v19q-73 28 -114 65q0 61 9 250t9 250l-16 225l-179 25l7 88q190 -8 331 -8l41 -41q-61 -496 -61 -742q14 -29 68.5 -60.5t78.5 -31.5l-8 -59q-19 0 -72 -32t-67 -60 q0 -109 15 -294.5t31 -316.5l15 -131l-41 -41q-63 0 -145.5 -2t-134.5 -4l-51 -2z" />
<glyph unicode="~" d="M96 436q5 9 13.5 23t35 51t52 65t59.5 51t63 23q60 0 162.5 -30.5t198.5 -61.5t141 -31q27 0 64 28t61 56l23 29l82 -68q-5 -9 -14 -23t-35.5 -51t-52 -65t-59.5 -51t-63 -23q-63 0 -255 61.5t-246 61.5q-27 0 -64 -28t-60 -56l-24 -28z" />
<glyph unicode="&#xa1;" horiz-adv-x="468" d="M84 -428q51 486 51 807l-6 174l14 12q36 -6 148 -6q-2 -74 -2 -135l18 -875l-184 -14zM84 897q0 60 32 96.5t89 36.5t89 -35t32 -98q0 -60 -32 -95.5t-89 -35.5t-89 35.5t-32 95.5z" />
<glyph unicode="&#xa2;" horiz-adv-x="989" d="M82 662q0 235 114.5 377t331.5 149l11 223l69 -6l-8 -219q23 -1 47 -5t41 -7.5t45.5 -12t41.5 -12.5t49.5 -16.5t49.5 -16.5l-20 -256l-119 6v74q0 19 -14 70q-60 50 -127 59l-31 -799q68 1 137.5 19.5t104.5 36.5l35 18l57 -96q-5 -4 -15 -11.5t-44 -26.5t-71 -33.5 t-94 -26.5t-116 -13l-8 -223l-72 6l8 219q-198 21 -300.5 160t-102.5 363zM274 662q0 -96 20.5 -174t71 -137t126.5 -75l32 793q-88 -9 -146 -71t-81 -147t-23 -189z" />
<glyph unicode="&#xa3;" horiz-adv-x="1169" d="M92 774l219 8v232q0 161 114.5 251.5t297.5 90.5q139 0 385 -66l-29 -301l-121 12v82q0 17 -24 115q-95 45 -213 45q-107 0 -165 -52.5t-58 -148.5v-251l434 20l4 -70l-438 -20v-148l444 21l4 -70l-448 -20v-162q0 -45 3.5 -101.5t6.5 -90.5l4 -33h262q77 0 178 18 q38 55 43 76q27 105 31 137l113 -10l-31 -309l-39 -37q-192 8 -233 8h-453l-242 -10l-10 102l162 33q18 122 18 156v213l-205 -9l-4 72l209 8v148l-215 -11z" />
<glyph unicode="&#xa5;" horiz-adv-x="1320" d="M10 1227l15 110h202l316 11l10 -97l-160 -45q77 -170 86 -184l189 -313l241 407q11 22 39 92l-151 19l14 110h164l317 11l11 -97l-142 -39l-145 -161l-150 -250l207 10l2 -70l-252 -12l-78 -131v-18l334 14l4 -70l-338 -16v-166q0 -45 3.5 -101.5t7.5 -90.5l4 -33 l160 -13l-13 -112q-180 8 -325 8l-195 -8l-10 106l158 19q20 123 20 164v219l-315 -15l-2 72l307 12l-86 144l-226 -11l-4 72l189 8l-174 289q-88 100 -123 137z" />
<glyph unicode="&#xa6;" horiz-adv-x="571" d="M219 -231v665l133 -14v-670zM219 819v737l133 -16v-737z" />
<glyph unicode="&#xa7;" horiz-adv-x="1099" d="M164 1163q0 147 102 229.5t262 82.5q128 0 340 -54l-24 -268l-96 10v68q0 11 -25 92q-94 39 -199 39q-71 0 -116.5 -43.5t-45.5 -122.5q0 -50 32 -92t82.5 -74t112 -62t123 -63t112 -69.5t82.5 -89t32 -115.5q0 -51 -38 -108.5t-87 -94.5l-59 35q37 42 37 94t-34.5 94 t-90 71.5t-122 58t-133.5 62.5t-122.5 74.5t-90 103.5t-34.5 142zM174 641q0 51 39 109.5t88 91.5l57 -35q-16 -19 -24 -45.5t-8 -42.5q0 -53 34.5 -96t90.5 -74.5t123 -62t134 -65.5t123 -77.5t90.5 -106.5t34.5 -143q0 -159 -112.5 -244.5t-288.5 -85.5q-63 0 -124.5 9.5 t-104 23t-76 26.5t-50.5 23l-16 9l25 278l113 -10v-80q0 -28 18 -111q103 -45 217 -45q89 0 141 49t52 138q0 57 -32 103t-82.5 78t-112 60.5t-123 59t-112 65t-82.5 86t-32 115.5z" />
<glyph unicode="&#xa8;" horiz-adv-x="737" d="M16 1337q0 57 28.5 90t82.5 33t82.5 -31.5t28.5 -91.5q0 -57 -28.5 -88.5t-82.5 -31.5t-82.5 31.5t-28.5 88.5zM500 1337q0 57 28 90t82 33t82.5 -31.5t28.5 -91.5q0 -57 -28.5 -88.5t-82.5 -31.5t-82 31.5t-28 88.5z" />
<glyph unicode="&#xa9;" horiz-adv-x="1730" d="M117 512q0 152 59.5 291t160 239t238.5 159t289 59q153 0 292 -58.5t239.5 -158t159.5 -238.5t59 -293q0 -150 -59.5 -288t-160 -239t-239.5 -161t-291 -60q-150 0 -287.5 58t-238.5 157t-161 238.5t-60 294.5zM207 512q0 -133 52.5 -254.5t140.5 -209.5t209.5 -140.5 t254.5 -52.5q134 0 256 52.5t210 140.5t140 209.5t52 254.5q0 176 -88.5 327.5t-240 240.5t-329.5 89q-133 0 -254 -51t-209.5 -138.5t-141 -209.5t-52.5 -258zM461 510q0 207 108 330t312 123q30 0 58.5 -2t61 -7.5t48.5 -8.5t55 -12t47 -11l-14 -207l-84 6v65q0 13 -15 58 q-90 22 -155 22q-121 0 -186.5 -99t-65.5 -255t65.5 -256t186.5 -100q81 0 166 20q18 41 18 66l2 67l86 2l6 -211q-6 -1 -30.5 -6.5t-33.5 -7.5t-32 -6.5t-35.5 -6.5t-34.5 -5.5t-38 -5t-36.5 -2.5t-39.5 -1q-204 0 -312 122t-108 329z" />
<glyph unicode="&#xaa;" horiz-adv-x="677" d="M53 1079q0 143 168 170l191 31v39q0 139 -105 139q-64 0 -110 -22l-11 -52l2 -57l-86 -4l-18 195q122 32 231 32q242 0 242 -241v-160q0 -27 3 -62t6 -56l3 -21l82 -9l-8 -86q-64 7 -205 7l-12 94q-28 -51 -77 -79t-109 -28q-86 0 -136.5 46t-50.5 124zM207 1104 q0 -86 80 -86q46 0 81 29t44 75v84l-131 -22q-74 -15 -74 -80z" />
<glyph unicode="&#xab;" horiz-adv-x="851" d="M51 496l314 454l75 -51l-219 -403l219 -404l-75 -51zM385 496l307 446l74 -51l-213 -395l213 -396l-74 -51z" />
<glyph unicode="&#xac;" d="M113 483v146h931v-488h-145l4 351z" />
<glyph unicode="&#xad;" horiz-adv-x="577" d="M61 596h455l-10 -154h-440z" />
<glyph unicode="&#xae;" horiz-adv-x="1730" d="M117 512q0 152 59.5 291t160 239t238.5 159t289 59q153 0 292 -58.5t239.5 -158t159.5 -238.5t59 -293q0 -150 -59.5 -288t-160 -239t-239.5 -161t-291 -60q-150 0 -287.5 58t-238.5 157t-161 238.5t-60 294.5zM207 512q0 -133 52.5 -254.5t140.5 -209.5t209.5 -140.5 t254.5 -52.5q134 0 256 52.5t210 140.5t140 209.5t52 254.5q0 176 -88.5 327.5t-240 240.5t-329.5 89q-133 0 -254 -51t-209.5 -138.5t-141 -209.5t-52.5 -258zM500 158l102 26h2q1 5 3.5 25.5t4.5 38t2 26.5v514q0 8 -2 26t-4.5 38t-3.5 27h-2l-96 8l8 69h100q30 0 127 6.5 t129 6.5q131 0 204 -64t73 -188q0 -82 -43.5 -141t-118.5 -89q26 -50 56 -102.5t47.5 -80.5t21.5 -34q9 -17 61 -88l84 -10l-8 -76h-219l-24 68q-31 78 -37 88l-111 211h-108v-152q0 -40 6 -127l90 -12l-8 -76h-91l-233 -6zM748 537q34 -5 71 -5h23q81 6 127.5 53t46.5 130 q0 90 -52 137t-145 47q-11 0 -65 -8q-6 -93 -6 -137v-217z" />
<glyph unicode="&#xaf;" horiz-adv-x="737" d="M39 1221v108h659l-10 -108h-649z" />
<glyph unicode="&#xb0;" horiz-adv-x="737" d="M61 1059q0 141 83.5 223t224.5 82q143 0 226 -82t83 -223t-83 -223t-226 -82q-141 0 -224.5 82t-83.5 223zM219 1059q0 -87 37.5 -144t114.5 -57q75 0 112 57t37 144t-37 144t-112 57q-77 0 -114.5 -57t-37.5 -144z" />
<glyph unicode="&#xb1;" d="M106 0v135l932 10v-145h-932zM106 616v144h394v391h133l4 -391h401v-133l-399 -4l4 -400h-143v398z" />
<glyph unicode="&#xb2;" horiz-adv-x="692" d="M41 1032q169 155 248 238.5t110 138.5t31 113q0 59 -36 93t-95 34q-63 0 -119 -33q-12 -34 -12 -53l2 -56l-88 -6l-12 203q117 45 247 45t203.5 -55.5t73.5 -153.5q0 -103 -74.5 -200.5t-300.5 -292.5h189q10 0 29 2t45 5.5t40 4.5q17 40 17 53l8 51l86 -6l-10 -215 l-33 -24q-117 4 -144 4h-387z" />
<glyph unicode="&#xb3;" horiz-adv-x="628" d="M31 870q163 23 261.5 93.5t98.5 162.5q0 67 -39 104.5t-108 37.5l-84 -4l-19 79q224 30 224 191q0 60 -30 91.5t-87 31.5q-43 0 -94 -21q-13 -57 -13 -61l2 -59l-88 -5l-16 201q110 37 215 37q133 0 202.5 -54.5t69.5 -158.5q0 -63 -38 -115t-107 -84q81 -19 130.5 -74 t49.5 -126q0 -131 -142.5 -228.5t-363.5 -117.5z" />
<glyph unicode="&#xb4;" horiz-adv-x="737" d="M135 1239l369 307l96 -123q-217 -122 -248 -145l-149 -123z" />
<glyph unicode="&#xb6;" horiz-adv-x="1138" d="M35 1028q0 214 120.5 325t336.5 111q44 0 102 -6v-811l-55 -51q-139 0 -252 49.5t-182.5 149t-69.5 233.5zM481 -98l197 45q18 81 18 211v1249l39 37l309 10l11 -108l-162 -33h-2q-17 -140 -17 -150v-1067l19 -243l-39 -37h-27l-335 -11z" />
<glyph unicode="&#xb7;" horiz-adv-x="436" d="M82 612q0 65 34.5 104.5t96.5 39.5q61 0 96 -38t35 -106q0 -64 -34.5 -102.5t-96.5 -38.5t-96.5 38.5t-34.5 102.5z" />
<glyph unicode="&#xb8;" horiz-adv-x="737" d="M215 -444l27 71q73 -22 118 -22q50 0 80.5 25.5t30.5 70.5q0 44 -26.5 66t-69.5 22l-43 -2l-23 20l19 213h98l-29 -141q93 -2 150 -49t57 -129q0 -81 -63 -131.5t-156 -50.5q-89 0 -170 37z" />
<glyph unicode="&#xb9;" horiz-adv-x="536" d="M47 1554q151 116 176 136q6 5 21.5 23t27.5 33l13 15l100 -14q-10 -232 -10 -293v-295q0 -26 2.5 -59t5.5 -54.5t4 -25.5l100 -8l-8 -97q-84 7 -211 7l-162 -7l-6 89l123 16q0 1 5 44t5 58v430l-145 -65z" />
<glyph unicode="&#xba;" horiz-adv-x="706" d="M49 1227q0 154 77.5 238.5t225.5 84.5t226.5 -84.5t78.5 -238.5q0 -151 -79 -236.5t-226 -85.5t-225 85t-78 237zM215 1227q0 -230 137 -230q140 0 140 230q0 231 -140 231q-137 0 -137 -231z" />
<glyph unicode="&#xbb;" horiz-adv-x="849" d="M86 98l213 396l-213 395l74 51l307 -446l-307 -447zM412 90l217 404l-217 403l75 51l314 -454l-314 -455z" />
<glyph unicode="&#xbc;" horiz-adv-x="1513" d="M47 1247q151 115 176 135q6 5 21.5 23t27.5 33l13 16l100 -14q-10 -232 -10 -293v-295q0 -26 2.5 -59t5.5 -54.5t4 -25.5l100 -8l-8 -97q-84 6 -211 6l-162 -6l-6 88l123 17q0 1 5 44t5 58v430l-145 -65zM205 -35l889 1512l102 -66l-887 -1511zM791 340l466 614l111 -88 q-142 -143 -162 -172l-256 -354h234v145l135 50v-185l121 6v-110h-121v-43q0 -22 2.5 -47t5 -41t2.5 -17l98 -8l-8 -96q-92 6 -215 6l-166 -6l-6 86l139 18q2 6 7.5 40.5t5.5 49.5v58h-316z" />
<glyph unicode="&#xbd;" horiz-adv-x="1556" d="M47 1247q151 115 176 135q6 5 21.5 23t27.5 33l13 16l100 -14q-10 -232 -10 -293v-295q0 -26 2.5 -59t5.5 -54.5t4 -25.5l100 -8l-8 -97q-84 6 -211 6l-162 -6l-6 88l123 17q0 1 5 44t5 58v430l-145 -65zM205 -35l889 1512l102 -66l-887 -1511zM885 111 q244 232 316.5 327.5t72.5 182.5q0 62 -36 97.5t-95 35.5q-69 0 -125 -33q-12 -35 -12 -74l2 -55l-88 -6l-13 223q117 45 254 45q131 0 204 -57t73 -160q0 -107 -75 -208.5t-300 -303.5h188q10 0 29 2t46 5.5t40 4.5q16 37 16 53l9 52l86 -6l-11 -216l-32 -24q-117 4 -144 4 h-387z" />
<glyph unicode="&#xbe;" horiz-adv-x="1544" d="M31 563q163 23 261.5 93.5t98.5 162.5q0 67 -39 104.5t-108 37.5l-84 -5l-19 80q224 30 224 191q0 60 -30 91.5t-87 31.5q-43 0 -94 -21q-13 -57 -13 -61l2 -60l-88 -4l-16 201q110 37 215 37q133 0 202.5 -54.5t69.5 -158.5q0 -63 -38 -115t-107 -84q81 -19 130.5 -74.5 t49.5 -126.5q0 -131 -142.5 -228.5t-363.5 -117.5zM236 -35l888 1512l103 -66l-887 -1511zM821 340l467 614l111 -88q-142 -143 -162 -172l-256 -354h233v145l136 50v-185l120 6v-110h-120v-43q0 -22 2.5 -47t5 -41t2.5 -17l98 -8l-8 -96q-92 6 -215 6l-166 -6l-6 86l139 18 q2 6 7 40.5t5 49.5v58h-315z" />
<glyph unicode="&#xbf;" horiz-adv-x="825" d="M23 -35q0 187 128.5 297.5t325.5 110.5l-8 180l14 12q36 -6 140 -6l8 -6v-264l-53 -49q-62 8 -105 8q-120 0 -189 -79.5t-69 -205.5q0 -91 26.5 -162.5t85.5 -117t144 -45.5q103 0 172 53q12 43 12 119l-4 73h119l25 -282q-173 -80 -322 -80q-210 0 -330 117.5 t-120 326.5zM424 897q0 60 32 96.5t89 36.5t89 -35t32 -98q0 -60 -32 -95.5t-89 -35.5t-89 35.5t-32 95.5z" />
<glyph unicode="&#xc0;" horiz-adv-x="1359" d="M20 90l130 35l88 203l366 1116l119 20l422 -1159l80 -174l127 -20l-11 -111h-206l-293 -10l-8 100l149 41l-55 221l-43 123h-451l-65 -215l-21 -129l144 -20l-11 -111h-176l-276 -10zM373 1690l61 149l469 -205l-41 -98l-180 76zM471 578l373 8l-193 555z" />
<glyph unicode="&#xc1;" horiz-adv-x="1359" d="M20 90l130 35l88 203l366 1116l119 20l422 -1159l80 -174l127 -20l-11 -111h-206l-293 -10l-8 100l149 41l-55 221l-43 123h-451l-65 -215l-21 -129l144 -20l-11 -111h-176l-276 -10zM455 1634l469 205l61 -149q-270 -66 -309 -78l-180 -76zM471 578l373 8l-193 555z" />
<glyph unicode="&#xc2;" horiz-adv-x="1359" d="M20 90l130 35l88 203l366 1116l119 20l422 -1159l80 -174l127 -20l-11 -111h-206l-293 -10l-8 100l149 41l-55 221l-43 123h-451l-65 -215l-21 -129l144 -20l-11 -111h-176l-276 -10zM324 1610l356 219l356 -219l-47 -80l-180 84l-129 51l-129 -51l-180 -84zM471 578 l373 8l-193 555z" />
<glyph unicode="&#xc3;" horiz-adv-x="1359" d="M20 90l130 35l88 203l366 1116l119 20l422 -1159l80 -174l127 -20l-11 -111h-206l-293 -10l-8 100l149 41l-55 221l-43 123h-451l-65 -215l-21 -129l144 -20l-11 -111h-176l-276 -10zM336 1579q4 8 10 22t25.5 50t38.5 63t45 49.5t49 22.5q41 0 169 -42t169 -42 q24 0 51 26t42 52l15 26l74 -43q-4 -8 -10 -21.5t-26 -48t-39 -61t-45.5 -48t-49.5 -21.5q-41 0 -168 42t-168 42q-24 0 -51 -27.5t-42 -55.5l-15 -28zM471 578l373 8l-193 555z" />
<glyph unicode="&#xc4;" horiz-adv-x="1359" d="M20 90l130 35l88 203l366 1116l119 20l422 -1159l80 -174l127 -20l-11 -111h-206l-293 -10l-8 100l149 41l-55 221l-43 123h-451l-65 -215l-21 -129l144 -20l-11 -111h-176l-276 -10zM328 1688q0 57 28 89.5t82 32.5q111 0 111 -122q0 -57 -28.5 -89t-82.5 -32t-82 32 t-28 89zM471 578l373 8l-193 555zM811 1688q0 57 28.5 89.5t82.5 32.5q110 0 110 -122q0 -57 -28 -89t-82 -32t-82.5 32t-28.5 89z" />
<glyph unicode="&#xc5;" horiz-adv-x="1359" d="M20 90l130 35l88 203l366 1116l119 20l422 -1159l80 -174l127 -20l-11 -111h-206l-293 -10l-8 100l149 41l-55 221l-43 123h-451l-65 -215l-21 -129l144 -20l-11 -111h-176l-276 -10zM471 578l373 8l-193 555zM496 1700q0 82 47 129t137 47t136 -47t46 -129 q0 -81 -46 -127.5t-136 -46.5t-137 47t-47 127zM596 1700q0 -41 21 -68.5t63 -27.5q44 0 65 27t21 69q0 43 -21 70.5t-65 27.5q-42 0 -63 -27.5t-21 -70.5z" />
<glyph unicode="&#xc6;" horiz-adv-x="1857" d="M-20 92l122 33q110 154 125 188l480 1006l-160 24l10 111q197 -10 238 -10h612q18 0 76.5 5t107.5 10l49 5l39 -37l15 -278l-119 -10q-5 39 -23 110q-2 16 -41 68q-112 10 -165 10h-371q14 -160 22 -219l50 -317q128 -9 155 -9h98q18 0 49 5t53 9l21 5l19 135l94 -10 q-2 -123 -2 -164l6 -223l-98 -13l-19 138q-122 12 -163 12h-58q-31 0 -137 -8l49 -312l51 -239h250q77 0 178 18q36 53 43 76q27 105 31 137l113 -10l-31 -309l-39 -37q-192 8 -233 8h-447l-242 -10l-10 102l168 33q0 73 -10 141l-37 242h-438l-142 -299q-5 -10 -13 -41 t-11 -43l168 -14l-14 -121q-105 10 -269 10l-190 -10zM512 612l371 6l-80 521l-15 57z" />
<glyph unicode="&#xc7;" horiz-adv-x="1249" d="M86 721q0 168 41.5 306t121.5 238t204 155t282 55q31 0 62.5 -2t55 -4t58 -8t49.5 -8.5t54 -11.5t46.5 -11t51.5 -13t47 -12l-20 -303l-121 8v96q0 18 -25 103q-139 47 -258 47q-143 0 -243.5 -85.5t-147.5 -226t-47 -321.5t47 -322t147 -227t242 -86q136 0 279 45 q28 94 28 115l4 96l121 4l13 -309q-233 -60 -375 -68l-19 -92q93 -2 150 -49t57 -129q0 -81 -63 -131.5t-156 -50.5q-89 0 -170 37l27 71q73 -22 119 -22q50 0 80 25.5t30 70.5q0 44 -26.5 66t-69.5 22l-43 -2l-23 20l15 164q-203 5 -345 101.5t-211 261.5t-69 387z" />
<glyph unicode="&#xc8;" horiz-adv-x="1204" d="M86 92l162 33q18 122 18 156v882q0 35 -18 156l-158 24l10 111q197 -10 238 -10h459q18 0 76.5 5t107.5 10l49 5l39 -37l14 -278l-118 -10q-5 39 -23 110q-3 18 -41 70q-112 10 -166 10h-268q-14 -151 -14 -227v-291q70 -4 88 -4h149q18 0 49 4.5t53 8.5l21 5l18 136 l95 -11q-2 -131 -2 -172l6 -223l-99 -12l-18 137q-123 12 -164 12h-108q-35 0 -88 -6v-344q0 -88 14 -225h295q77 0 178 18q39 56 43 76q2 10 15.5 64t15.5 73l112 -10l-30 -309l-39 -37q-193 8 -234 8h-485l-242 -10zM295 1690l61 149l469 -205l-41 -98l-180 76z" />
<glyph unicode="&#xc9;" horiz-adv-x="1204" d="M86 92l162 33q18 122 18 156v882q0 35 -18 156l-158 24l10 111q197 -10 238 -10h459q18 0 76.5 5t107.5 10l49 5l39 -37l14 -278l-118 -10q-5 39 -23 110q-3 18 -41 70q-112 10 -166 10h-268q-14 -151 -14 -227v-291q70 -4 88 -4h149q18 0 49 4.5t53 8.5l21 5l18 136 l95 -11q-2 -131 -2 -172l6 -223l-99 -12l-18 137q-123 12 -164 12h-108q-35 0 -88 -6v-344q0 -88 14 -225h295q77 0 178 18q39 56 43 76q2 10 15.5 64t15.5 73l112 -10l-30 -309l-39 -37q-193 8 -234 8h-485l-242 -10zM377 1634l469 205l61 -149q-270 -66 -309 -78l-180 -76 z" />
<glyph unicode="&#xca;" horiz-adv-x="1204" d="M86 92l162 33q18 122 18 156v882q0 35 -18 156l-158 24l10 111q197 -10 238 -10h459q18 0 76.5 5t107.5 10l49 5l39 -37l14 -278l-118 -10q-5 39 -23 110q-3 18 -41 70q-112 10 -166 10h-268q-14 -151 -14 -227v-291q70 -4 88 -4h149q18 0 49 4.5t53 8.5l21 5l18 136 l95 -11q-2 -131 -2 -172l6 -223l-99 -12l-18 137q-123 12 -164 12h-108q-35 0 -88 -6v-344q0 -88 14 -225h295q77 0 178 18q39 56 43 76q2 10 15.5 64t15.5 73l112 -10l-30 -309l-39 -37q-193 8 -234 8h-485l-242 -10zM246 1610l356 219l356 -219l-47 -80l-180 84l-129 51 l-129 -51l-180 -84z" />
<glyph unicode="&#xcb;" horiz-adv-x="1204" d="M86 92l162 33q18 122 18 156v882q0 35 -18 156l-158 24l10 111q197 -10 238 -10h459q18 0 76.5 5t107.5 10l49 5l39 -37l14 -278l-118 -10q-5 39 -23 110q-3 18 -41 70q-112 10 -166 10h-268q-14 -151 -14 -227v-291q70 -4 88 -4h149q18 0 49 4.5t53 8.5l21 5l18 136 l95 -11q-2 -131 -2 -172l6 -223l-99 -12l-18 137q-123 12 -164 12h-108q-35 0 -88 -6v-344q0 -88 14 -225h295q77 0 178 18q39 56 43 76q2 10 15.5 64t15.5 73l112 -10l-30 -309l-39 -37q-193 8 -234 8h-485l-242 -10zM250 1688q0 57 28 89.5t82 32.5q111 0 111 -122 q0 -57 -28.5 -89t-82.5 -32t-82 32t-28 89zM733 1688q0 57 28.5 89.5t82.5 32.5q110 0 110 -122q0 -57 -28 -89t-82 -32t-82.5 32t-28.5 89z" />
<glyph unicode="&#xcc;" horiz-adv-x="743" d="M66 1690l61 149l469 -205l-41 -98l-180 76zM98 92l162 33q19 128 19 156v882q0 28 -19 156l-158 24l11 111q196 -10 237 -10q73 0 143 2.5t104 5.5l34 2l8 -121l-160 -14q-14 -101 -14 -217v-760q0 -116 14 -217l185 -14l-15 -121q-135 10 -299 10l-241 -10z" />
<glyph unicode="&#xcd;" horiz-adv-x="743" d="M98 92l162 33q19 128 19 156v882q0 28 -19 156l-158 24l11 111q196 -10 237 -10q73 0 143 2.5t104 5.5l34 2l8 -121l-160 -14q-14 -101 -14 -217v-760q0 -116 14 -217l185 -14l-15 -121q-135 10 -299 10l-241 -10zM147 1634l469 205l62 -149q-270 -66 -309 -78l-181 -76z " />
<glyph unicode="&#xce;" horiz-adv-x="743" d="M16 1610l357 219l356 -219l-47 -80l-180 84l-129 51l-129 -51l-181 -84zM98 92l162 33q19 128 19 156v882q0 28 -19 156l-158 24l11 111q196 -10 237 -10q73 0 143 2.5t104 5.5l34 2l8 -121l-160 -14q-14 -101 -14 -217v-760q0 -116 14 -217l185 -14l-15 -121 q-135 10 -299 10l-241 -10z" />
<glyph unicode="&#xd0;" horiz-adv-x="1476" d="M86 92l162 33q18 122 18 156v409h-180v88h180v385q0 35 -18 156l-158 24l10 111q131 -6 201 -10q53 2 180.5 11t202.5 9q339 0 523 -198t184 -545q0 -218 -84 -383t-244.5 -257.5t-378.5 -92.5q-36 0 -157.5 6t-188.5 6l-242 -10zM453 342q0 -44 3 -98.5t6.5 -88 t4.5 -38.5q106 -8 219 -8q100 0 183 31.5t141.5 87t99 132.5t59.5 167.5t19 193.5q0 104 -19 196t-59.5 170t-99 134.5t-141.5 88t-183 31.5q-134 0 -219 -10q-14 -137 -14 -229v-324h292l-10 -88h-282v-348z" />
<glyph unicode="&#xd1;" horiz-adv-x="1558" d="M84 1343l10 111q197 -10 238 -10l90 2l41 -43q168 -273 199 -318l536 -751v809q0 59 -18 170l-162 12l12 123l168 -4q72 0 152 2.5t124 5.5l44 2l10 -108l-162 -33q-31 -151 -31 -232v-473l-2 -622h-123l-807 1153v-797q0 -108 15 -217l166 -14l-15 -121q-88 10 -252 10 l-221 -10l-10 102l162 33q18 122 18 156v882q0 17 -18 156zM436 1579q4 8 10 22t25.5 50t38.5 63t45 49.5t49 22.5q41 0 169 -42t169 -42q24 0 51.5 26t42.5 52l15 26l73 -43q-4 -8 -10 -21.5t-26 -48t-39 -61t-45.5 -48t-49.5 -21.5q-41 0 -168 42t-168 42q-24 0 -51 -27.5 t-42 -55.5l-15 -28z" />
<glyph unicode="&#xd2;" horiz-adv-x="1515" d="M86 721q0 226 74.5 394t227.5 264t370 96t370 -96t227.5 -264t74.5 -394q0 -225 -74.5 -392.5t-227.5 -263.5t-370 -96t-370 96t-227.5 263.5t-74.5 392.5zM305 721q0 -135 28.5 -250.5t83 -204t142.5 -138.5t199 -50t198.5 50t142.5 138.5t83 203.5t28 251t-28 252 t-83 204.5t-142.5 138.5t-198.5 50q-148 0 -252 -88t-152.5 -231t-48.5 -326zM451 1690l61 149l469 -205l-41 -98l-180 76z" />
<glyph unicode="&#xd3;" horiz-adv-x="1515" d="M86 721q0 226 74.5 394t227.5 264t370 96t370 -96t227.5 -264t74.5 -394q0 -225 -74.5 -392.5t-227.5 -263.5t-370 -96t-370 96t-227.5 263.5t-74.5 392.5zM305 721q0 -135 28.5 -250.5t83 -204t142.5 -138.5t199 -50t198.5 50t142.5 138.5t83 203.5t28 251t-28 252 t-83 204.5t-142.5 138.5t-198.5 50q-148 0 -252 -88t-152.5 -231t-48.5 -326zM532 1634l469 205l62 -149q-270 -66 -309 -78l-181 -76z" />
<glyph unicode="&#xd4;" horiz-adv-x="1515" d="M86 721q0 226 74.5 394t227.5 264t370 96t370 -96t227.5 -264t74.5 -394q0 -225 -74.5 -392.5t-227.5 -263.5t-370 -96t-370 96t-227.5 263.5t-74.5 392.5zM305 721q0 -135 28.5 -250.5t83 -204t142.5 -138.5t199 -50t198.5 50t142.5 138.5t83 203.5t28 251t-28 252 t-83 204.5t-142.5 138.5t-198.5 50q-148 0 -252 -88t-152.5 -231t-48.5 -326zM401 1610l357 219l356 -219l-47 -80l-180 84l-129 51l-129 -51l-180 -84z" />
<glyph unicode="&#xd5;" horiz-adv-x="1515" d="M86 721q0 226 74.5 394t227.5 264t370 96t370 -96t227.5 -264t74.5 -394q0 -225 -74.5 -392.5t-227.5 -263.5t-370 -96t-370 96t-227.5 263.5t-74.5 392.5zM305 721q0 -135 28.5 -250.5t83 -204t142.5 -138.5t199 -50t198.5 50t142.5 138.5t83 203.5t28 251t-28 252 t-83 204.5t-142.5 138.5t-198.5 50q-148 0 -252 -88t-152.5 -231t-48.5 -326zM414 1579q4 8 10 22t25.5 50t38.5 63t45 49.5t49 22.5q41 0 169 -42t169 -42q24 0 51 26t42 52l15 26l74 -43q-4 -8 -10 -21.5t-26 -48t-39 -61t-45.5 -48t-49.5 -21.5q-41 0 -168 42t-168 42 q-24 0 -51.5 -27.5t-42.5 -55.5l-15 -28z" />
<glyph unicode="&#xd7;" horiz-adv-x="1101" d="M123 829l102 103l324 -320l319 324l109 -109l-320 -319l322 -315l-109 -109l-319 317l-322 -319l-102 102l317 324z" />
<glyph unicode="&#xd8;" horiz-adv-x="1515" d="M86 721q0 226 74.5 394t227.5 264t370 96q174 0 311 -64l160 305l86 -47l-162 -307q136 -96 206.5 -261t70.5 -380q0 -225 -74.5 -392.5t-227.5 -263.5t-370 -96q-170 0 -307 62l-164 -310l-82 48l162 309q-138 94 -209.5 260t-71.5 383zM305 721q0 -320 139 -496 l557 1059q-106 82 -243 82q-148 0 -252 -88t-152.5 -231t-48.5 -326zM516 156q105 -78 242 -78q111 0 198.5 50t142.5 138.5t83 203.5t28 251q0 314 -137 491z" />
<glyph unicode="&#xd9;" horiz-adv-x="1488" d="M35 1343l10 111q197 -10 238 -10q73 0 146.5 2.5t110.5 5.5l38 2l8 -121l-162 -14q-14 -109 -14 -227v-547q0 -202 90 -323.5t262 -121.5q178 0 271 121.5t93 323.5v608q0 21 -20 166l-160 24l10 111q177 -10 218 -10q73 0 140 2.5t98 5.5l30 2l8 -121l-162 -14 q-14 -108 -14 -227v-547q0 -268 -136.5 -422t-394.5 -154q-257 0 -392.5 154t-135.5 422v608q0 27 -18 166zM440 1690l62 149l469 -205l-41 -98l-180 76z" />
<glyph unicode="&#xda;" horiz-adv-x="1488" d="M35 1343l10 111q197 -10 238 -10q73 0 146.5 2.5t110.5 5.5l38 2l8 -121l-162 -14q-14 -109 -14 -227v-547q0 -202 90 -323.5t262 -121.5q178 0 271 121.5t93 323.5v608q0 21 -20 166l-160 24l10 111q177 -10 218 -10q73 0 140 2.5t98 5.5l30 2l8 -121l-162 -14 q-14 -108 -14 -227v-547q0 -268 -136.5 -422t-394.5 -154q-257 0 -392.5 154t-135.5 422v608q0 27 -18 166zM522 1634l469 205l62 -149q-271 -66 -310 -78l-180 -76z" />
<glyph unicode="&#xdb;" horiz-adv-x="1488" d="M35 1343l10 111q197 -10 238 -10q73 0 146.5 2.5t110.5 5.5l38 2l8 -121l-162 -14q-14 -109 -14 -227v-547q0 -202 90 -323.5t262 -121.5q178 0 271 121.5t93 323.5v608q0 21 -20 166l-160 24l10 111q177 -10 218 -10q73 0 140 2.5t98 5.5l30 2l8 -121l-162 -14 q-14 -108 -14 -227v-547q0 -268 -136.5 -422t-394.5 -154q-257 0 -392.5 154t-135.5 422v608q0 27 -18 166zM391 1610l357 219l356 -219l-47 -80l-180 84l-129 51l-130 -51l-180 -84z" />
<glyph unicode="&#xdc;" horiz-adv-x="1488" d="M35 1343l10 111q197 -10 238 -10q73 0 146.5 2.5t110.5 5.5l38 2l8 -121l-162 -14q-14 -109 -14 -227v-547q0 -202 90 -323.5t262 -121.5q178 0 271 121.5t93 323.5v608q0 21 -20 166l-160 24l10 111q177 -10 218 -10q73 0 140 2.5t98 5.5l30 2l8 -121l-162 -14 q-14 -108 -14 -227v-547q0 -268 -136.5 -422t-394.5 -154q-257 0 -392.5 154t-135.5 422v608q0 27 -18 166zM395 1688q0 57 28.5 89.5t82.5 32.5q110 0 110 -122q0 -57 -28 -89t-82 -32t-82.5 32t-28.5 89zM879 1688q0 57 28 89.5t82 32.5q111 0 111 -122q0 -57 -28.5 -89 t-82.5 -32t-82 32t-28 89z" />
<glyph unicode="&#xde;" horiz-adv-x="1198" d="M86 92l162 33q18 122 18 156v882q0 35 -18 156l-158 24l10 111q197 -10 238 -10q73 0 143 2.5t103 5.5l34 2l9 -121l-160 -14q-9 -51 -12 -158q169 13 225 13q216 0 336.5 -111t120.5 -326q0 -134 -69.5 -233.5t-182.5 -149t-252 -49.5q-66 0 -180 4q3 -115 14 -184 l184 -14l-14 -121q-135 10 -299 10l-242 -10zM453 418q85 -10 139 -10q164 0 258 83.5t94 245.5q0 163 -93.5 248.5t-256.5 85.5q-35 0 -141 -12v-641z" />
<glyph unicode="&#xdf;" horiz-adv-x="1280" d="M70 92l161 33q19 128 19 156v620h-158l-6 86q20 7 58.5 18t61.5 20t44 22v135q0 190 110 292.5t304 102.5q114 0 207.5 -35.5t153.5 -112t60 -182.5q0 -69 -23 -124.5t-57 -89t-74.5 -65.5t-74.5 -56.5t-57 -60.5t-23 -79q0 -36 26.5 -68t68.5 -57.5t92.5 -52t101.5 -58 t93 -67t68.5 -87t26.5 -112.5q0 -152 -85 -221t-248 -69q-82 0 -162 20t-119 40l-39 19l23 279l118 -6v-78q0 -21 25 -123q52 -47 152 -47q77 0 119 40t42 116q0 43 -26 79t-67.5 62.5t-91.5 52.5t-100.5 55.5t-92 64.5t-67.5 87.5t-26 116.5q0 56 18.5 101t48 75.5t65 57 t71 51.5t65 52t48 65.5t18.5 86.5q0 97 -78.5 153t-199.5 56q-63 0 -108 -16t-72 -42.5t-42.5 -71t-20.5 -92.5t-5 -116v-776q0 -130 12 -342h-106l-242 -10z" />
<glyph unicode="&#xe0;" horiz-adv-x="1056" d="M92 242q0 226 275 272l327 55v68q0 283 -192 283q-111 0 -195 -41l-14 -86v-84l-119 -7l-22 279q183 49 370 49q183 0 260.5 -99.5t77.5 -334.5v-254q0 -45 5 -99.5t11 -86.5l5 -31l141 -14l-14 -121q-101 10 -265 10l-28 162q-40 -78 -133 -130t-193 -52 q-136 0 -216.5 71t-80.5 191zM233 1423l97 123l368 -307l-67 -84l-150 123q-14 10 -76 46.5t-117 67.5zM272 272q0 -77 39 -119t111 -42q103 0 180 65.5t92 165.5v123l-293 -55q-61 -10 -95 -47t-34 -91z" />
<glyph unicode="&#xe1;" horiz-adv-x="1056" d="M92 242q0 226 275 272l327 55v68q0 283 -192 283q-111 0 -195 -41l-14 -86v-84l-119 -7l-22 279q183 49 370 49q183 0 260.5 -99.5t77.5 -334.5v-254q0 -45 5 -99.5t11 -86.5l5 -31l141 -14l-14 -121q-101 10 -265 10l-28 162q-40 -78 -133 -130t-193 -52 q-136 0 -216.5 71t-80.5 191zM272 272q0 -77 39 -119t111 -42q103 0 180 65.5t92 165.5v123l-293 -55q-61 -10 -95 -47t-34 -91zM315 1239l369 307l96 -123q-217 -122 -248 -145l-149 -123z" />
<glyph unicode="&#xe2;" horiz-adv-x="1056" d="M92 242q0 226 275 272l327 55v68q0 283 -192 283q-111 0 -195 -41l-14 -86v-84l-119 -7l-22 279q183 49 370 49q183 0 260.5 -99.5t77.5 -334.5v-254q0 -45 5 -99.5t11 -86.5l5 -31l141 -14l-14 -121q-101 10 -265 10l-28 162q-40 -78 -133 -130t-193 -52 q-136 0 -216.5 71t-80.5 191zM168 1221l340 346l340 -346l-68 -66l-151 125l-121 88q-21 -15 -50 -36t-47 -34t-24 -18l-151 -125zM272 272q0 -77 39 -119t111 -42q103 0 180 65.5t92 165.5v123l-293 -55q-61 -10 -95 -47t-34 -91z" />
<glyph unicode="&#xe3;" horiz-adv-x="1056" d="M92 242q0 226 275 272l327 55v68q0 283 -192 283q-111 0 -195 -41l-14 -86v-84l-119 -7l-22 279q183 49 370 49q183 0 260.5 -99.5t77.5 -334.5v-254q0 -45 5 -99.5t11 -86.5l5 -31l141 -14l-14 -121q-101 10 -265 10l-28 162q-40 -78 -133 -130t-193 -52 q-136 0 -216.5 71t-80.5 191zM174 1253q4 8 10 22t25.5 50t38.5 63t45 49.5t49 22.5q41 0 158.5 -42t158.5 -42q24 0 51.5 26t42.5 52l15 27l74 -43q-4 -8 -10 -21.5t-26 -48.5t-39 -61.5t-45.5 -48t-49.5 -21.5q-41 0 -158 42t-158 42q-24 0 -51 -27.5t-42 -55.5l-15 -28z M272 272q0 -77 39 -119t111 -42q103 0 180 65.5t92 165.5v123l-293 -55q-61 -10 -95 -47t-34 -91z" />
<glyph unicode="&#xe4;" horiz-adv-x="1056" d="M92 242q0 226 275 272l327 55v68q0 283 -192 283q-111 0 -195 -41l-14 -86v-84l-119 -7l-22 279q183 49 370 49q183 0 260.5 -99.5t77.5 -334.5v-254q0 -45 5 -99.5t11 -86.5l5 -31l141 -14l-14 -121q-101 10 -265 10l-28 162q-40 -78 -133 -130t-193 -52 q-136 0 -216.5 71t-80.5 191zM156 1337q0 57 28 90t82 33t82.5 -31.5t28.5 -91.5q0 -57 -28.5 -88.5t-82.5 -31.5t-82 31.5t-28 88.5zM272 272q0 -77 39 -119t111 -42q103 0 180 65.5t92 165.5v123l-293 -55q-61 -10 -95 -47t-34 -91zM639 1337q0 57 28.5 90t82.5 33 q110 0 110 -123q0 -57 -28 -88.5t-82 -31.5t-82.5 31.5t-28.5 88.5z" />
<glyph unicode="&#xe5;" horiz-adv-x="1056" d="M92 242q0 226 275 272l327 55v68q0 283 -192 283q-111 0 -195 -41l-14 -86v-84l-119 -7l-22 279q183 49 370 49q183 0 260.5 -99.5t77.5 -334.5v-254q0 -45 5 -99.5t11 -86.5l5 -31l141 -14l-14 -121q-101 10 -265 10l-28 162q-40 -78 -133 -130t-193 -52 q-136 0 -216.5 71t-80.5 191zM272 272q0 -77 39 -119t111 -42q103 0 180 65.5t92 165.5v123l-293 -55q-61 -10 -95 -47t-34 -91zM324 1362q0 82 47 129t137 47t136 -47t46 -129q0 -81 -46 -127.5t-136 -46.5t-137 47t-47 127zM424 1362q0 -41 21 -68.5t63 -27.5q44 0 65 27 t21 69q0 43 -21 70.5t-65 27.5q-42 0 -63 -27.5t-21 -70.5z" />
<glyph unicode="&#xe6;" horiz-adv-x="1548" d="M82 252q0 105 60 170t175 84l367 61v70q0 283 -192 283q-115 0 -191 -39l-18 -97v-73l-119 -6l-23 276q183 49 371 49q211 0 283 -133q122 131 307 131q362 0 389 -393l-31 -78l-612 -70q6 -167 88.5 -270.5t210.5 -103.5q72 0 143.5 21t106.5 42l35 21l57 -95 q-6 -5 -17.5 -13t-49 -29t-77.5 -37.5t-100 -29.5t-119 -13q-133 0 -230 60.5t-148 176.5q-138 -237 -369 -237q-136 0 -216.5 73.5t-80.5 198.5zM262 262q0 -72 39 -111.5t111 -39.5q115 0 193.5 94.5t78.5 234.5v23l-293 -53q-69 -14 -99 -48t-30 -100zM852 592l455 63v4 q0 125 -56 194t-157 69q-104 0 -168 -86.5t-74 -243.5z" />
<glyph unicode="&#xe7;" horiz-adv-x="954" d="M82 504q0 242 121 384t350 142q25 0 48 -1.5t49 -6t40 -7t45.5 -12t41 -12.5t49 -16.5t48.5 -16.5l-20 -256l-119 7v73q0 19 -14 70q-73 61 -168 61q-74 0 -129.5 -34.5t-87 -94t-47 -129.5t-15.5 -151q0 -80 15 -148t47 -124t87.5 -87.5t129.5 -31.5q71 0 143 18.5 t108 36.5l36 18l57 -96q-5 -4 -13.5 -10.5t-38.5 -23.5t-62.5 -30.5t-83.5 -26.5t-103 -17l-21 -103q93 -2 150 -49t57 -129q0 -81 -63 -131.5t-156 -50.5q-89 0 -170 37l27 71q73 -22 119 -22q50 0 80 25.5t30 70.5q0 44 -26.5 66t-69.5 22l-43 -2l-23 20l15 175 q-206 15 -313 154t-107 368z" />
<glyph unicode="&#xe8;" horiz-adv-x="978" d="M82 502q0 240 114 384t332 144q394 0 394 -477l-35 -68h-613q3 -97 33 -178.5t94 -137.5t152 -56q77 0 153.5 21t113.5 42l38 21l57 -95q-5 -5 -15.5 -13t-45.5 -29t-74 -37.5t-100.5 -29.5t-126.5 -13q-226 0 -348.5 142t-122.5 380zM260 1423l96 123l369 -307l-68 -84 l-149 123q-14 10 -76 46.5t-117 67.5zM276 588l455 35q2 31 2 41q0 115 -54.5 187.5t-158.5 72.5q-60 0 -106.5 -28t-74 -77t-42.5 -106t-21 -125z" />
<glyph unicode="&#xe9;" horiz-adv-x="978" d="M82 502q0 240 114 384t332 144q394 0 394 -477l-35 -68h-613q3 -97 33 -178.5t94 -137.5t152 -56q77 0 153.5 21t113.5 42l38 21l57 -95q-5 -5 -15.5 -13t-45.5 -29t-74 -37.5t-100.5 -29.5t-126.5 -13q-226 0 -348.5 142t-122.5 380zM276 588l455 35q2 31 2 41 q0 115 -54.5 187.5t-158.5 72.5q-60 0 -106.5 -28t-74 -77t-42.5 -106t-21 -125zM342 1239l369 307l96 -123q-217 -122 -248 -145l-149 -123z" />
<glyph unicode="&#xea;" horiz-adv-x="978" d="M82 502q0 240 114 384t332 144q394 0 394 -477l-35 -68h-613q3 -97 33 -178.5t94 -137.5t152 -56q77 0 153.5 21t113.5 42l38 21l57 -95q-5 -5 -15.5 -13t-45.5 -29t-74 -37.5t-100.5 -29.5t-126.5 -13q-226 0 -348.5 142t-122.5 380zM195 1221l340 346l339 -346l-67 -66 l-152 125l-120 88q-21 -15 -50 -36t-47 -34t-24 -18l-152 -125zM276 588l455 35q2 31 2 41q0 115 -54.5 187.5t-158.5 72.5q-60 0 -106.5 -28t-74 -77t-42.5 -106t-21 -125z" />
<glyph unicode="&#xeb;" horiz-adv-x="978" d="M82 502q0 240 114 384t332 144q394 0 394 -477l-35 -68h-613q3 -97 33 -178.5t94 -137.5t152 -56q77 0 153.5 21t113.5 42l38 21l57 -95q-5 -5 -15.5 -13t-45.5 -29t-74 -37.5t-100.5 -29.5t-126.5 -13q-226 0 -348.5 142t-122.5 380zM182 1337q0 57 28.5 90t82.5 33 q110 0 110 -123q0 -57 -28 -88.5t-82 -31.5t-82.5 31.5t-28.5 88.5zM276 588l455 35q2 31 2 41q0 115 -54.5 187.5t-158.5 72.5q-60 0 -106.5 -28t-74 -77t-42.5 -106t-21 -125zM666 1337q0 57 28 90t82 33t82.5 -31.5t28.5 -91.5q0 -57 -28.5 -88.5t-82.5 -31.5t-82 31.5 t-28 88.5z" />
<glyph unicode="&#xec;" horiz-adv-x="616" d="M35 1423l96 123l369 -307l-68 -84l-149 123q-14 10 -76 46.5t-117 67.5zM74 92l155 33q21 115 21 156v442q0 18 -5 57t-11 69l-5 30l-155 32l10 109q147 -8 188 -8h119l39 -37q-14 -211 -14 -313v-320q0 -45 3.5 -99.5t6.5 -86.5l4 -31l160 -14l-15 -121q-100 10 -264 10 l-227 -10z" />
<glyph unicode="&#xed;" horiz-adv-x="616" d="M74 92l155 33q21 115 21 156v442q0 18 -5 57t-11 69l-5 30l-155 32l10 109q147 -8 188 -8h119l39 -37q-14 -211 -14 -313v-320q0 -45 3.5 -99.5t6.5 -86.5l4 -31l160 -14l-15 -121q-100 10 -264 10l-227 -10zM117 1239l368 307l97 -123q-217 -122 -248 -145l-150 -123z " />
<glyph unicode="&#xee;" horiz-adv-x="616" d="M-31 1221l340 346l340 -346l-67 -66l-152 125l-121 88q-21 -15 -50 -36t-47 -34t-24 -18l-151 -125zM94 92l156 33q20 115 20 156v442q0 18 -5 57t-10 69l-5 30l-156 32l10 109q148 -8 189 -8h119l39 -37q-15 -211 -15 -313v-320q0 -45 4 -99.5t8 -86.5l3 -31l159 -14 l-14 -121q-100 10 -264 10l-228 -10z" />
<glyph unicode="&#xf0;" horiz-adv-x="1112" d="M84 483q0 223 123 364.5t321 141.5q57 0 144 -33l-17 -92q-54 8 -108 8q-91 0 -153 -56.5t-88.5 -141.5t-26.5 -191q0 -62 9 -117.5t29.5 -105.5t52 -86t78 -57t105.5 -21q61 0 110 23t80.5 61.5t52 93t29.5 113.5t9 127q0 477 -209 743l-254 -131l-45 72l241 125 q-94 94 -223 160l39 84q167 -65 295 -187l235 123l45 -76l-217 -110q141 -156 213 -364.5t72 -436.5q0 -245 -122.5 -390.5t-350.5 -145.5q-218 0 -343.5 139t-125.5 364z" />
<glyph unicode="&#xf1;" horiz-adv-x="1249" d="M74 92l155 33q17 98 21 145v453q0 18 -5 57t-11 69l-5 30l-155 32l10 109q147 -8 188 -8h74l39 -37l12 -131q41 79 122 132.5t190 53.5q83 0 144.5 -22t100 -60t61.5 -98t31.5 -127.5t8.5 -157.5v-223q0 -45 3.5 -99.5t7.5 -86.5l3 -31l160 -14l-15 -121q-100 10 -264 10 l-209 -10l-10 102l137 33q21 95 21 156v284q0 340 -211 340q-120 0 -190 -95.5t-72 -248.5v-219q0 -45 3.5 -99.5t6.5 -86.5l4 -31l160 -14l-15 -121q-100 10 -264 10l-227 -10zM352 1253q4 8 10 22t25.5 50t38.5 63t45 49.5t49 22.5q41 0 159 -42t159 -42q24 0 51 26t42 52 l15 27l74 -43q-4 -8 -10 -21.5t-26 -48.5t-39 -61.5t-45.5 -48t-49.5 -21.5q-41 0 -157.5 42t-157.5 42q-24 0 -51.5 -27.5t-42.5 -55.5l-15 -28z" />
<glyph unicode="&#xf2;" horiz-adv-x="1105" d="M82 504q0 241 121.5 383.5t349.5 142.5q231 0 351 -141t120 -385q0 -240 -121.5 -382t-349.5 -142t-349.5 142t-121.5 382zM274 504q0 -83 14.5 -153.5t45.5 -129t87 -92t132 -33.5t132 33.5t86.5 92.5t45 128.5t14.5 153.5t-14.5 154t-45 129t-86.5 92.5t-132 33.5 t-132 -33.5t-87 -92.5t-45.5 -129.5t-14.5 -153.5zM295 1423l96 123l369 -307l-68 -84l-149 123q-14 10 -76 46.5t-117 67.5z" />
<glyph unicode="&#xf3;" horiz-adv-x="1105" d="M82 504q0 241 121.5 383.5t349.5 142.5q231 0 351 -141t120 -385q0 -240 -121.5 -382t-349.5 -142t-349.5 142t-121.5 382zM274 504q0 -83 14.5 -153.5t45.5 -129t87 -92t132 -33.5t132 33.5t86.5 92.5t45 128.5t14.5 153.5t-14.5 154t-45 129t-86.5 92.5t-132 33.5 t-132 -33.5t-87 -92.5t-45.5 -129.5t-14.5 -153.5zM377 1239l368 307l97 -123q-217 -122 -248 -145l-150 -123z" />
<glyph unicode="&#xf4;" horiz-adv-x="1105" d="M82 504q0 241 121.5 383.5t349.5 142.5q231 0 351 -141t120 -385q0 -240 -121.5 -382t-349.5 -142t-349.5 142t-121.5 382zM229 1221l340 346l340 -346l-67 -66l-152 125l-121 88q-20 -15 -49.5 -36t-47 -34t-23.5 -18l-152 -125zM274 504q0 -83 14.5 -153.5t45.5 -129 t87 -92t132 -33.5t132 33.5t86.5 92.5t45 128.5t14.5 153.5t-14.5 154t-45 129t-86.5 92.5t-132 33.5t-132 -33.5t-87 -92.5t-45.5 -129.5t-14.5 -153.5z" />
<glyph unicode="&#xf5;" horiz-adv-x="1105" d="M82 504q0 241 121.5 383.5t349.5 142.5q231 0 351 -141t120 -385q0 -240 -121.5 -382t-349.5 -142t-349.5 142t-121.5 382zM236 1253q3 8 9.5 22t25.5 50t38 63t45 49.5t49 22.5q41 0 159 -42t159 -42q24 0 51 26t42 52l15 27l74 -43q-4 -8 -10 -21.5t-26 -48.5 t-39 -61.5t-45.5 -48t-49.5 -21.5q-41 0 -157.5 42t-157.5 42q-24 0 -51.5 -27.5t-42.5 -55.5l-15 -28zM274 504q0 -83 14.5 -153.5t45.5 -129t87 -92t132 -33.5t132 33.5t86.5 92.5t45 128.5t14.5 153.5t-14.5 154t-45 129t-86.5 92.5t-132 33.5t-132 -33.5t-87 -92.5 t-45.5 -129.5t-14.5 -153.5z" />
<glyph unicode="&#xf7;" d="M106 436v135l932 11v-146h-932zM467 143q0 60 32 96.5t89 36.5t89 -35t32 -98q0 -60 -32 -95.5t-89 -35.5t-89 35.5t-32 95.5zM467 866q0 60 32 96.5t89 36.5t89 -35t32 -98q0 -60 -32 -95.5t-89 -35.5t-89 35.5t-32 95.5z" />
<glyph unicode="&#xf8;" horiz-adv-x="1105" d="M82 504q0 241 121.5 383.5t349.5 142.5q126 0 221 -45l127 240l82 -41l-131 -246q172 -135 172 -434q0 -240 -121.5 -382t-349.5 -142q-99 0 -191 30l-112 -213l-80 41l113 215q-99 65 -150 181t-51 270zM274 504q0 -207 80 -316l355 674q-60 51 -156 51 q-76 0 -132 -33.5t-87 -92.5t-45.5 -129.5t-14.5 -153.5zM424 127q54 -31 129 -31q76 0 132 33.5t86.5 92.5t45 128.5t14.5 153.5q0 171 -59 280z" />
<glyph unicode="&#xf9;" horiz-adv-x="1212" d="M47 911l10 109q127 -8 168 -8h119l39 -37q-14 -211 -14 -313v-287q0 -264 202 -264q120 0 189 94t69 225v293q0 18 -5 57t-10 69l-5 30l-145 32l10 109q137 -8 178 -8h119l39 -37q-15 -211 -15 -313v-320q0 -45 5.5 -99.5t10.5 -86.5l5 -31l141 -14l-14 -121 q-100 10 -264 10l-27 160q-103 -180 -317 -180q-83 0 -143 22.5t-96 60.5t-57.5 99.5t-28.5 126.5t-7 155v279q0 18 -5.5 57t-10.5 69l-5 30zM287 1423l96 123l369 -307l-68 -84l-149 123q-14 10 -76 46.5t-117 67.5z" />
<glyph unicode="&#xfa;" horiz-adv-x="1212" d="M47 911l10 109q127 -8 168 -8h119l39 -37q-14 -211 -14 -313v-287q0 -264 202 -264q120 0 189 94t69 225v293q0 18 -5 57t-10 69l-5 30l-145 32l10 109q137 -8 178 -8h119l39 -37q-15 -211 -15 -313v-320q0 -45 5.5 -99.5t10.5 -86.5l5 -31l141 -14l-14 -121 q-100 10 -264 10l-27 160q-103 -180 -317 -180q-83 0 -143 22.5t-96 60.5t-57.5 99.5t-28.5 126.5t-7 155v279q0 18 -5.5 57t-10.5 69l-5 30zM369 1239l368 307l97 -123q-217 -122 -248 -145l-150 -123z" />
<glyph unicode="&#xfb;" horiz-adv-x="1212" d="M47 911l10 109q127 -8 168 -8h119l39 -37q-14 -211 -14 -313v-287q0 -264 202 -264q120 0 189 94t69 225v293q0 18 -5 57t-10 69l-5 30l-145 32l10 109q137 -8 178 -8h119l39 -37q-15 -211 -15 -313v-320q0 -45 5.5 -99.5t10.5 -86.5l5 -31l141 -14l-14 -121 q-100 10 -264 10l-27 160q-103 -180 -317 -180q-83 0 -143 22.5t-96 60.5t-57.5 99.5t-28.5 126.5t-7 155v279q0 18 -5.5 57t-10.5 69l-5 30zM221 1221l340 346l340 -346l-67 -66l-152 125l-121 88q-21 -15 -50 -36t-47 -34t-24 -18l-151 -125z" />
<glyph unicode="&#xfc;" horiz-adv-x="1212" d="M47 911l10 109q127 -8 168 -8h119l39 -37q-14 -211 -14 -313v-287q0 -264 202 -264q120 0 189 94t69 225v293q0 18 -5 57t-10 69l-5 30l-145 32l10 109q137 -8 178 -8h119l39 -37q-15 -211 -15 -313v-320q0 -45 5.5 -99.5t10.5 -86.5l5 -31l141 -14l-14 -121 q-100 10 -264 10l-27 160q-103 -180 -317 -180q-83 0 -143 22.5t-96 60.5t-57.5 99.5t-28.5 126.5t-7 155v279q0 18 -5.5 57t-10.5 69l-5 30zM223 1337q0 57 28.5 90t82.5 33q110 0 110 -123q0 -57 -28 -88.5t-82 -31.5t-82.5 31.5t-28.5 88.5zM707 1337q0 57 28 90t82 33 t82.5 -31.5t28.5 -91.5q0 -57 -28.5 -88.5t-82.5 -31.5t-82 31.5t-28 88.5z" />
<glyph unicode="&#xfe;" horiz-adv-x="1116" d="M2 1448l10 108q148 -8 189 -8h118l39 -37l-14 -286v-351q28 56 109.5 106t160.5 50q200 0 310 -132.5t110 -373.5q0 -236 -133.5 -390t-337.5 -154q-105 0 -219 51v-156q0 -45 3.5 -99.5t6.5 -85.5l4 -32l201 -14l-14 -121q-139 10 -303 10l-209 -10l-10 102l135 33 q20 98 20 145v1457q0 18 -5 57t-10 69l-5 29zM344 176q109 -74 207 -74q145 0 222 108t77 310q0 190 -63.5 287.5t-188.5 97.5q-114 0 -184 -97.5t-70 -246.5v-385z" />
<glyph unicode="&#xff;" horiz-adv-x="1103" d="M0 911l10 107q127 -6 168 -6q73 0 143 2.5t104 5.5l34 2l6 -119l-148 -14q25 -107 52 -174l202 -502l179 475q31 87 55 199l-150 24l11 107q137 -6 178 -6q69 0 128 2.5t83 5.5l24 2l6 -119l-108 -16q-78 -160 -107 -234l-421 -1134l-330 22l16 119l82 -2q30 0 137 20 q52 73 78 140l66 182l-293 682q-27 69 -105 205zM201 1337q0 57 28 90t82 33t82.5 -31.5t28.5 -91.5q0 -57 -28.5 -88.5t-82.5 -31.5t-82 31.5t-28 88.5zM684 1337q0 57 28.5 90t82.5 33q110 0 110 -123q0 -57 -28 -88.5t-82 -31.5t-82.5 31.5t-28.5 88.5z" />
<glyph unicode="&#x152;" horiz-adv-x="2009" d="M86 721q0 226 74.5 394t227.5 264t370 96q98 0 198 -23q122 -8 187 -8h459q18 0 76.5 5t107.5 10l49 5l39 -37l14 -278l-119 -10q-6 47 -22 110q-3 18 -41 70q-113 10 -166 10h-268q-15 -146 -15 -227v-295q70 -4 89 -4h149q18 0 49 4.5t52 8.5l22 5l18 135l95 -10 q-2 -123 -2 -164l6 -223l-99 -12l-18 137q-123 12 -164 12h-108q-36 0 -89 -6v-348q0 -79 15 -225h295q77 0 178 18q39 56 43 76q2 10 15.5 64t15.5 73l112 -10l-30 -309l-39 -37q-193 8 -234 8h-485q-65 0 -187 -8q-100 -23 -198 -23q-217 0 -370 96t-227.5 263.5 t-74.5 392.5zM305 721q0 -135 28.5 -250.5t83 -204t142.5 -138.5t199 -50q195 0 313 143v998q-124 147 -313 147q-148 0 -252 -88t-152.5 -231t-48.5 -326z" />
<glyph unicode="&#x153;" horiz-adv-x="1697" d="M82 504q0 241 121.5 383.5t349.5 142.5q234 0 358 -149q117 149 336 149q393 0 393 -477l-34 -68h-613q4 -97 34 -178.5t93.5 -137.5t151.5 -56q77 0 153.5 21t114.5 42l37 21l57 -95q-5 -5 -15.5 -13t-45.5 -29t-74 -37.5t-100.5 -29.5t-126.5 -13q-234 0 -361 153 q-124 -153 -358 -153q-228 0 -349.5 142t-121.5 382zM274 504q0 -83 14.5 -153.5t45.5 -129t87 -92t132 -33.5t132 33.5t86.5 92.5t45 128.5t14.5 153.5t-14.5 154t-45 129t-86.5 92.5t-132 33.5t-132 -33.5t-87 -92.5t-45.5 -129.5t-14.5 -153.5zM995 590l455 33q2 31 2 41 q0 115 -54.5 187.5t-158.5 72.5q-60 0 -106.5 -28t-74 -77t-42.5 -105.5t-21 -123.5z" />
<glyph unicode="&#x178;" horiz-adv-x="1357" d="M12 1333l11 111h223l301 10l8 -100l-162 -41q22 -100 88 -221l207 -387l236 479l57 129l-156 20l11 111h184l293 10l8 -100l-139 -35q-74 -97 -129 -203l-287 -557v-217q0 -116 14 -217l185 -14l-15 -121q-135 10 -299 10l-241 -10l-11 102l162 33q19 128 19 156v245 l-318 613q-19 37 -48 80.5t-48 68.5l-19 25zM328 1688q0 57 28 89.5t82 32.5q111 0 111 -122q0 -57 -28.5 -89t-82.5 -32t-82 32t-28 89zM811 1688q0 57 28.5 89.5t82.5 32.5q110 0 110 -122q0 -57 -28 -89t-82 -32t-82.5 32t-28.5 89z" />
<glyph unicode="&#x2c6;" horiz-adv-x="737" d="M29 1221l340 346l340 -346l-68 -66l-152 125l-120 88q-21 -15 -50 -36t-47 -34t-24 -18l-152 -125z" />
<glyph unicode="&#x2dc;" horiz-adv-x="737" d="M35 1253q4 8 10 22t25.5 50t38.5 63t45 49.5t49 22.5q41 0 158.5 -42t158.5 -42q24 0 51.5 26t42.5 52l15 27l73 -43q-4 -8 -10 -21.5t-26 -48.5t-39 -61.5t-45.5 -48t-49.5 -21.5q-41 0 -157.5 42t-157.5 42q-24 0 -51 -27.5t-42 -55.5l-15 -28z" />
<glyph unicode="&#x2000;" horiz-adv-x="938" />
<glyph unicode="&#x2001;" horiz-adv-x="1876" />
<glyph unicode="&#x2002;" horiz-adv-x="938" />
<glyph unicode="&#x2003;" horiz-adv-x="1876" />
<glyph unicode="&#x2004;" horiz-adv-x="625" />
<glyph unicode="&#x2005;" horiz-adv-x="469" />
<glyph unicode="&#x2006;" horiz-adv-x="312" />
<glyph unicode="&#x2007;" horiz-adv-x="312" />
<glyph unicode="&#x2008;" horiz-adv-x="234" />
<glyph unicode="&#x2009;" horiz-adv-x="375" />
<glyph unicode="&#x200a;" horiz-adv-x="104" />
<glyph unicode="&#x2010;" horiz-adv-x="577" d="M61 596h455l-10 -154h-440z" />
<glyph unicode="&#x2011;" horiz-adv-x="577" d="M61 596h455l-10 -154h-440z" />
<glyph unicode="&#x2012;" horiz-adv-x="577" d="M61 596h455l-10 -154h-440z" />
<glyph unicode="&#x2013;" horiz-adv-x="1032" d="M0 596h1032l-10 -154h-1018z" />
<glyph unicode="&#x2014;" horiz-adv-x="2060" d="M0 596h2060l-10 -154h-2046z" />
<glyph unicode="&#x2018;" horiz-adv-x="393" d="M59 1235q0 73 30 143.5t92.5 125.5t144.5 73l14 -49q-65 -28 -103 -79.5t-38 -115.5q55 0 90 -36.5t35 -92.5q0 -58 -37.5 -99.5t-93.5 -41.5q-64 0 -99 50t-35 122z" />
<glyph unicode="&#x2019;" horiz-adv-x="393" d="M53 1112q65 28 103.5 79.5t38.5 115.5q-55 0 -90 36.5t-35 92.5q0 58 37.5 99.5t93.5 41.5q64 0 98.5 -50t34.5 -122q0 -73 -30 -143.5t-92 -125.5t-144 -73z" />
<glyph unicode="&#x201a;" horiz-adv-x="442" d="M70 -215q65 28 103 79.5t38 115.5q-55 0 -90 36.5t-35 92.5q0 58 37.5 99.5t93.5 41.5q64 0 98.5 -50t34.5 -122q0 -73 -30 -143.5t-92 -125.5t-144 -73z" />
<glyph unicode="&#x201c;" horiz-adv-x="737" d="M72 1235q0 73 30 143.5t92 125.5t144 73l14 -49q-65 -28 -103 -79.5t-38 -115.5q55 0 90 -36.5t35 -92.5q0 -58 -37.5 -99.5t-93.5 -41.5q-64 0 -98.5 50t-34.5 122zM399 1235q0 73 30 143.5t92.5 125.5t144.5 73l14 -49q-65 -28 -103 -79.5t-38 -115.5q55 0 90 -36.5 t35 -92.5q0 -58 -38 -99.5t-94 -41.5q-64 0 -98.5 50t-34.5 122z" />
<glyph unicode="&#x201d;" horiz-adv-x="757" d="M74 1102q65 28 103 79t38 115q-55 0 -90 36.5t-35 92.5q0 58 37.5 100t93.5 42q64 0 98.5 -50t34.5 -122q0 -73 -30 -143.5t-92 -125.5t-144 -73zM403 1102q66 28 104 79t38 115q-55 0 -90 36.5t-35 92.5q0 58 37.5 100t93.5 42q64 0 98.5 -50t34.5 -122 q0 -73 -30 -143.5t-92 -125.5t-144 -73z" />
<glyph unicode="&#x201e;" horiz-adv-x="772" d="M70 -215q65 28 103 79.5t38 115.5q-55 0 -90 36.5t-35 92.5q0 58 37.5 99.5t93.5 41.5q64 0 98.5 -50t34.5 -122q0 -73 -30 -143.5t-92 -125.5t-144 -73zM399 -215q65 28 103.5 79.5t38.5 115.5q-55 0 -90 36.5t-35 92.5q0 58 37.5 99.5t93.5 41.5q64 0 98.5 -50 t34.5 -122q0 -73 -30 -143.5t-92 -125.5t-144 -73z" />
<glyph unicode="&#x2022;" horiz-adv-x="471" d="M72 518q0 80 43.5 129t120.5 49t120 -47t43 -131q0 -80 -43 -128t-120 -48t-120.5 48.5t-43.5 127.5z" />
<glyph unicode="&#x2026;" horiz-adv-x="1234" d="M82 121q0 61 33 99t92 38t92 -36.5t33 -100.5q0 -61 -33 -98t-92 -37t-92 37t-33 98zM487 121q0 61 33 99t92 38t92 -36.5t33 -100.5q0 -61 -33 -98t-92 -37t-92 37t-33 98zM893 121q0 61 33 99t92 38t92 -36.5t33 -100.5q0 -61 -33 -98t-92 -37t-92 37t-33 98z" />
<glyph unicode="&#x202f;" horiz-adv-x="375" />
<glyph unicode="&#x2039;" horiz-adv-x="526" d="M51 496l314 454l75 -51l-219 -403l219 -404l-75 -51z" />
<glyph unicode="&#x203a;" horiz-adv-x="526" d="M86 90l217 404l-217 403l76 51l313 -454l-313 -455z" />
<glyph unicode="&#x205f;" horiz-adv-x="469" />
<glyph unicode="&#x20ac;" horiz-adv-x="1411" d="M92 774l203 8q30 267 187.5 420.5t428.5 153.5q30 0 60.5 -2t53 -4t56 -8t48 -8.5t52 -11.5t45.5 -11t49.5 -13t45.5 -12l-23 -303l-124 12v92q0 17 -21 103q-132 47 -240 47q-170 0 -271.5 -121.5t-125.5 -322.5l416 18l4 -70l-428 -20v-57q0 -33 4 -91l430 21l4 -70 l-426 -20q29 -190 130 -303t265 -113q123 0 256 45q27 91 27 115l4 96l125 4l12 -309q-87 -23 -136 -34.5t-133.5 -23.5t-158.5 -12q-259 0 -415 140t-195 385l-195 -9l-4 72l191 8q-4 31 -4 97v49l-193 -9z" />
<glyph unicode="&#x2122;" horiz-adv-x="1069" d="M6 1323l6 115l13 14q63 -6 77 -6h224l75 6l15 -14l4 -115l-49 -2q0 17 -6 47q-5 5 -7 14q-20 4 -49 4h-35q-6 -36 -6 -51v-235q0 -54 6 -78l43 -4l-4 -55q-55 4 -135 4l-65 -4l-4 49l43 10q6 18 6 57v228q0 43 -6 79h-29q-27 0 -55 -4q-1 -3 -2 -6.5t-2 -5t-1 -2.5 q-6 -30 -6 -47zM453 1010l45 10l10 37l16 295q0 17 -4 37l-43 8l2 51q39 -2 72 -6h100l15 -10q20 -76 28 -105l68 -207l72 219l26 93l14 14h72l88 2l2 -51l-43 -8v-37l21 -295q8 -32 10 -37l41 -6l-2 -51q-49 4 -123 4l-70 -4l-2 47l43 10q4 28 4 57l-12 236l-121 -346h-65 l-117 346l-14 -236q0 -7 1 -28.5t1 -28.5l45 -6l-4 -51q-29 4 -107 4l-67 -4z" />
<glyph unicode="&#x25fc;" horiz-adv-x="1024" d="M0 0v1024h1024v-1024h-1024z" />
</font>
</defs>
</svg>
